<?xml version="1.0" encoding="UTF-8"?>
<!--Generator: Apple Native CoreSVG 175-->
<!DOCTYPE svg
PUBLIC "-//W3C//DTD SVG 1.1//EN"
       "http://www.w3.org/Graphics/SVG/1.1/DTD/svg11.dtd">
<svg version="1.1" xmlns="http://www.w3.org/2000/svg" xmlns:xlink="http://www.w3.org/1999/xlink" width="3300" height="2200">
 <!--glyph: "uni10017E.medium", point size: 100.0, font version: "17.1d1e1", template writer version: "65.1"-->
 <g id="Notes">
  <rect height="2200" id="artboard" style="fill:white;opacity:1" width="3300" x="0" y="0"/>
  <line style="fill:none;stroke:black;opacity:1;stroke-width:0.5;" x1="263" x2="3036" y1="292" y2="292"/>
  <text style="stroke:none;fill:black;font-family:sans-serif;font-size:13;font-weight:bold;" transform="matrix(1 0 0 1 263 322)">Weight/Scale Variations</text>
  <text style="stroke:none;fill:black;font-family:sans-serif;font-size:13;text-anchor:middle;" transform="matrix(1 0 0 1 559.711 322)">Ultralight</text>
  <text style="stroke:none;fill:black;font-family:sans-serif;font-size:13;text-anchor:middle;" transform="matrix(1 0 0 1 856.422 322)">Thin</text>
  <text style="stroke:none;fill:black;font-family:sans-serif;font-size:13;text-anchor:middle;" transform="matrix(1 0 0 1 1153.13 322)">Light</text>
  <text style="stroke:none;fill:black;font-family:sans-serif;font-size:13;text-anchor:middle;" transform="matrix(1 0 0 1 1449.84 322)">Regular</text>
  <text style="stroke:none;fill:black;font-family:sans-serif;font-size:13;text-anchor:middle;" transform="matrix(1 0 0 1 1746.56 322)">Medium</text>
  <text style="stroke:none;fill:black;font-family:sans-serif;font-size:13;text-anchor:middle;" transform="matrix(1 0 0 1 2043.27 322)">Semibold</text>
  <text style="stroke:none;fill:black;font-family:sans-serif;font-size:13;text-anchor:middle;" transform="matrix(1 0 0 1 2339.98 322)">Bold</text>
  <text style="stroke:none;fill:black;font-family:sans-serif;font-size:13;text-anchor:middle;" transform="matrix(1 0 0 1 2636.69 322)">Heavy</text>
  <text style="stroke:none;fill:black;font-family:sans-serif;font-size:13;text-anchor:middle;" transform="matrix(1 0 0 1 2933.4 322)">Black</text>
  <line style="fill:none;stroke:black;opacity:1;stroke-width:0.5;" x1="263" x2="3036" y1="1903" y2="1903"/>
  <g transform="matrix(1 0 0 1 263 1933)">
   <path d="M9.24805 0.830078Q10.8691 0.830078 12.2949 0.214844Q13.7207-0.400391 14.8096-1.49414Q15.8984-2.58789 16.5186-4.01367Q17.1387-5.43945 17.1387-7.05078Q17.1387-8.66211 16.5186-10.0879Q15.8984-11.5137 14.8047-12.6074Q13.7109-13.7012 12.2852-14.3164Q10.8594-14.9316 9.23828-14.9316Q7.62695-14.9316 6.20117-14.3164Q4.77539-13.7012 3.69141-12.6074Q2.60742-11.5137 1.9873-10.0879Q1.36719-8.66211 1.36719-7.05078Q1.36719-5.43945 1.9873-4.01367Q2.60742-2.58789 3.69629-1.49414Q4.78516-0.400391 6.21094 0.214844Q7.63672 0.830078 9.24805 0.830078ZM9.24805-0.654297Q7.91992-0.654297 6.7627-1.14746Q5.60547-1.64062 4.73145-2.51953Q3.85742-3.39844 3.36426-4.56055Q2.87109-5.72266 2.87109-7.05078Q2.87109-8.37891 3.35938-9.54102Q3.84766-10.7031 4.72168-11.582Q5.5957-12.4609 6.75293-12.9541Q7.91016-13.4473 9.23828-13.4473Q10.5762-13.4473 11.7334-12.9541Q12.8906-12.4609 13.7695-11.582Q14.6484-10.7031 15.1465-9.54102Q15.6445-8.37891 15.6445-7.05078Q15.6445-5.72266 15.1514-4.56055Q14.6582-3.39844 13.7842-2.51953Q12.9102-1.64062 11.748-1.14746Q10.5859-0.654297 9.24805-0.654297ZM5.6543-7.05078Q5.6543-6.72852 5.85938-6.52832Q6.06445-6.32812 6.40625-6.32812L8.51562-6.32812L8.51562-4.20898Q8.51562-3.88672 8.71094-3.67676Q8.90625-3.4668 9.23828-3.4668Q9.56055-3.4668 9.77051-3.67676Q9.98047-3.88672 9.98047-4.20898L9.98047-6.32812L12.0898-6.32812Q12.4219-6.32812 12.627-6.52832Q12.832-6.72852 12.832-7.05078Q12.832-7.38281 12.627-7.58789Q12.4219-7.79297 12.0898-7.79297L9.98047-7.79297L9.98047-9.90234Q9.98047-10.2344 9.77051-10.4443Q9.56055-10.6543 9.23828-10.6543Q8.90625-10.6543 8.71094-10.4443Q8.51562-10.2344 8.51562-9.90234L8.51562-7.79297L6.40625-7.79297Q6.06445-7.79297 5.85938-7.58789Q5.6543-7.38281 5.6543-7.05078Z"/>
  </g>
  <g transform="matrix(1 0 0 1 281.867 1933)">
   <path d="M11.709 2.91016Q13.75 2.91016 15.5518 2.12891Q17.3535 1.34766 18.7305-0.0292969Q20.1074-1.40625 20.8887-3.20801Q21.6699-5.00977 21.6699-7.05078Q21.6699-9.0918 20.8887-10.8936Q20.1074-12.6953 18.7305-14.0723Q17.3535-15.4492 15.5469-16.2305Q13.7402-17.0117 11.6992-17.0117Q9.6582-17.0117 7.85645-16.2305Q6.05469-15.4492 4.68262-14.0723Q3.31055-12.6953 2.5293-10.8936Q1.74805-9.0918 1.74805-7.05078Q1.74805-5.00977 2.5293-3.20801Q3.31055-1.40625 4.6875-0.0292969Q6.06445 1.34766 7.86621 2.12891Q9.66797 2.91016 11.709 2.91016ZM11.709 1.25Q9.98047 1.25 8.47656 0.605469Q6.97266-0.0390625 5.83496-1.17676Q4.69727-2.31445 4.05762-3.81836Q3.41797-5.32227 3.41797-7.05078Q3.41797-8.7793 4.05762-10.2832Q4.69727-11.7871 5.83008-12.9297Q6.96289-14.0723 8.4668-14.7119Q9.9707-15.3516 11.6992-15.3516Q13.4277-15.3516 14.9316-14.7119Q16.4355-14.0723 17.5781-12.9297Q18.7207-11.7871 19.3652-10.2832Q20.0098-8.7793 20.0098-7.05078Q20.0098-5.32227 19.3701-3.81836Q18.7305-2.31445 17.5928-1.17676Q16.4551-0.0390625 14.9463 0.605469Q13.4375 1.25 11.709 1.25ZM7.17773-7.05078Q7.17773-6.69922 7.41211-6.47461Q7.64648-6.25 8.01758-6.25L10.8887-6.25L10.8887-3.36914Q10.8887-2.99805 11.1133-2.76855Q11.3379-2.53906 11.6895-2.53906Q12.0605-2.53906 12.29-2.76855Q12.5195-2.99805 12.5195-3.36914L12.5195-6.25L15.4004-6.25Q15.7715-6.25 16.001-6.47461Q16.2305-6.69922 16.2305-7.05078Q16.2305-7.42188 16.001-7.65137Q15.7715-7.88086 15.4004-7.88086L12.5195-7.88086L12.5195-10.752Q12.5195-11.1328 12.29-11.3623Q12.0605-11.5918 11.6895-11.5918Q11.3379-11.5918 11.1133-11.3574Q10.8887-11.123 10.8887-10.752L10.8887-7.88086L8.01758-7.88086Q7.63672-7.88086 7.40723-7.65137Q7.17773-7.42188 7.17773-7.05078Z"/>
  </g>
  <g transform="matrix(1 0 0 1 305.646 1933)">
   <path d="M14.9707 5.66406Q17.0605 5.66406 18.96 5.01465Q20.8594 4.36523 22.4512 3.19336Q24.043 2.02148 25.2197 0.429688Q26.3965-1.16211 27.0459-3.06641Q27.6953-4.9707 27.6953-7.05078Q27.6953-9.14062 27.0459-11.04Q26.3965-12.9395 25.2197-14.5312Q24.043-16.123 22.4512-17.2998Q20.8594-18.4766 18.9551-19.126Q17.0508-19.7754 14.9609-19.7754Q12.8711-19.7754 10.9717-19.126Q9.07227-18.4766 7.48535-17.2998Q5.89844-16.123 4.72168-14.5312Q3.54492-12.9395 2.90039-11.04Q2.25586-9.14062 2.25586-7.05078Q2.25586-4.9707 2.90527-3.06641Q3.55469-1.16211 4.72656 0.429688Q5.89844 2.02148 7.49023 3.19336Q9.08203 4.36523 10.9814 5.01465Q12.8809 5.66406 14.9707 5.66406ZM14.9707 3.84766Q13.1641 3.84766 11.5283 3.2959Q9.89258 2.74414 8.53516 1.74805Q7.17773 0.751953 6.17676-0.610352Q5.17578-1.97266 4.62891-3.6084Q4.08203-5.24414 4.08203-7.05078Q4.08203-8.86719 4.62891-10.5029Q5.17578-12.1387 6.17188-13.501Q7.16797-14.8633 8.52539-15.8594Q9.88281-16.8555 11.5186-17.4023Q13.1543-17.9492 14.9609-17.9492Q16.7773-17.9492 18.4131-17.4023Q20.0488-16.8555 21.4111-15.8594Q22.7734-14.8633 23.7695-13.501Q24.7656-12.1387 25.3174-10.5029Q25.8691-8.86719 25.8691-7.05078Q25.8789-5.24414 25.332-3.6084Q24.7852-1.97266 23.7842-0.610352Q22.7832 0.751953 21.4209 1.74805Q20.0586 2.74414 18.4229 3.2959Q16.7871 3.84766 14.9707 3.84766ZM9.19922-7.05078Q9.19922-6.66992 9.45801-6.4209Q9.7168-6.17188 10.1172-6.17188L14.0625-6.17188L14.0625-2.2168Q14.0625-1.81641 14.3115-1.55762Q14.5605-1.29883 14.9512-1.29883Q15.3516-1.29883 15.6104-1.55273Q15.8691-1.80664 15.8691-2.2168L15.8691-6.17188L19.8242-6.17188Q20.2246-6.17188 20.4785-6.4209Q20.7324-6.66992 20.7324-7.05078Q20.7324-7.46094 20.4785-7.71484Q20.2246-7.96875 19.8242-7.96875L15.8691-7.96875L15.8691-11.9141Q15.8691-12.3242 15.6104-12.583Q15.3516-12.8418 14.9512-12.8418Q14.5605-12.8418 14.3115-12.583Q14.0625-12.3242 14.0625-11.9141L14.0625-7.96875L10.1172-7.96875Q9.70703-7.96875 9.45312-7.71484Q9.19922-7.46094 9.19922-7.05078Z"/>
  </g>
  <text style="stroke:none;fill:black;font-family:sans-serif;font-size:13;font-weight:bold;" transform="matrix(1 0 0 1 263 1953)">Design Variations</text>
  <text style="stroke:none;fill:black;font-family:sans-serif;font-size:13;" transform="matrix(1 0 0 1 263 1971)">Symbols are supported in up to nine weights and three scales.</text>
  <text style="stroke:none;fill:black;font-family:sans-serif;font-size:13;" transform="matrix(1 0 0 1 263 1989)">For optimal layout with text and other symbols, vertically align</text>
  <text style="stroke:none;fill:black;font-family:sans-serif;font-size:13;" transform="matrix(1 0 0 1 263 2007)">symbols with the adjacent text.</text>
  <line style="fill:none;stroke:#00AEEF;stroke-width:0.5;opacity:1.0;" x1="776" x2="776" y1="1919" y2="1933"/>
  <g transform="matrix(1 0 0 1 776 1933)">
   <path d="M3.31055 0.15625Q3.70117 0.15625 3.91602-0.00976562Q4.13086-0.175781 4.26758-0.585938L5.52734-4.0332L11.2891-4.0332L12.5488-0.585938Q12.6855-0.175781 12.9004-0.00976562Q13.1152 0.15625 13.4961 0.15625Q13.8867 0.15625 14.1162-0.0585938Q14.3457-0.273438 14.3457-0.644531Q14.3457-0.869141 14.2383-1.17188L9.6582-13.3691Q9.48242-13.8184 9.17969-14.043Q8.87695-14.2676 8.4082-14.2676Q7.5-14.2676 7.17773-13.3789L2.59766-1.16211Q2.49023-0.859375 2.49023-0.634766Q2.49023-0.263672 2.70996-0.0537109Q2.92969 0.15625 3.31055 0.15625ZM6.00586-5.51758L8.37891-12.0898L8.42773-12.0898L10.8008-5.51758Z"/>
  </g>
  <line style="fill:none;stroke:#00AEEF;stroke-width:0.5;opacity:1.0;" x1="793.197" x2="793.197" y1="1919" y2="1933"/>
  <text style="stroke:none;fill:black;font-family:sans-serif;font-size:13;font-weight:bold;" transform="matrix(1 0 0 1 776 1953)">Margins</text>
  <text style="stroke:none;fill:black;font-family:sans-serif;font-size:13;" transform="matrix(1 0 0 1 776 1971)">Leading and trailing margins on the left and right side of each symbol</text>
  <text style="stroke:none;fill:black;font-family:sans-serif;font-size:13;" transform="matrix(1 0 0 1 776 1989)">can be adjusted by modifying the x-location of the margin guidelines.</text>
  <text style="stroke:none;fill:black;font-family:sans-serif;font-size:13;" transform="matrix(1 0 0 1 776 2007)">Modifications are automatically applied proportionally to all</text>
  <text style="stroke:none;fill:black;font-family:sans-serif;font-size:13;" transform="matrix(1 0 0 1 776 2025)">scales and weights.</text>
  <g transform="matrix(1 0 0 1 1289 1933)">
   <path d="M2.8418 1.86523L4.54102 3.57422Q5.18555 4.22852 5.90332 4.17969Q6.62109 4.13086 7.31445 3.35938L18.0078-8.42773L17.041-9.4043L6.42578 2.27539Q6.16211 2.57812 5.89355 2.61719Q5.625 2.65625 5.27344 2.30469L4.10156 1.14258Q3.75 0.791016 3.79395 0.522461Q3.83789 0.253906 4.14062-0.0195312L15.6152-10.8203L14.6387-11.7871L3.04688-0.898438Q2.30469-0.214844 2.25098 0.498047Q2.19727 1.21094 2.8418 1.86523ZM9.25781-16.3281Q8.94531-16.0254 8.90625-15.6348Q8.86719-15.2441 9.04297-14.9512Q9.21875-14.6777 9.55566-14.541Q9.89258-14.4043 10.3809-14.5215Q11.4746-14.7754 12.5977-14.7314Q13.7207-14.6875 14.7949-13.9844L14.209-12.5293Q13.9551-11.9043 14.0674-11.4404Q14.1797-10.9766 14.5801-10.5664L16.875-8.25195Q17.2363-7.88086 17.5781-7.82227Q17.9199-7.76367 18.3398-7.8418L19.4043-8.03711L20.0684-7.36328L20.0293-6.80664Q20-6.43555 20.1221-6.12305Q20.2441-5.81055 20.6055-5.44922L21.3672-4.70703Q21.7285-4.3457 22.1533-4.33105Q22.5781-4.31641 22.9297-4.66797L25.8398-7.58789Q26.1914-7.93945 26.1816-8.35449Q26.1719-8.76953 25.8105-9.13086L25.0391-9.89258Q24.6875-10.2539 24.3799-10.3857Q24.0723-10.5176 23.7109-10.4883L23.1348-10.4395L22.4902-11.0742L22.7344-12.1973Q22.832-12.6172 22.6953-12.9834Q22.5586-13.3496 22.1191-13.7891L19.9219-15.9766Q18.6719-17.2168 17.2607-17.8369Q15.8496-18.457 14.4189-18.4814Q12.9883-18.5059 11.665-17.959Q10.3418-17.4121 9.25781-16.3281ZM10.752-15.957Q11.6602-16.6211 12.7002-16.9043Q13.7402-17.1875 14.8047-17.085Q15.8691-16.9824 16.8701-16.5137Q17.8711-16.0449 18.7012-15.2051L21.1328-12.793Q21.3086-12.6172 21.3525-12.4512Q21.3965-12.2852 21.3379-12.0312L21.0156-10.5469L22.5195-9.0625L23.5059-9.12109Q23.6914-9.13086 23.7891-9.09668Q23.8867-9.0625 24.0332-8.91602L24.6094-8.33984L22.168-5.89844L21.5918-6.47461Q21.4453-6.62109 21.4062-6.71875Q21.3672-6.81641 21.377-7.01172L21.4453-7.98828L19.9512-9.47266L18.4277-9.21875Q18.1836-9.16992 18.042-9.2041Q17.9004-9.23828 17.7148-9.41406L15.7129-11.416Q15.5176-11.5918 15.4932-11.7529Q15.4688-11.9141 15.5859-12.1875L16.4648-14.2773Q15.293-15.3711 13.8281-15.791Q12.3633-16.2109 10.8398-15.7617Q10.7227-15.7324 10.6885-15.8057Q10.6543-15.8789 10.752-15.957Z"/>
  </g>
  <text style="stroke:none;fill:black;font-family:sans-serif;font-size:13;font-weight:bold;" transform="matrix(1 0 0 1 1289 1953)">Exporting</text>
  <text style="stroke:none;fill:black;font-family:sans-serif;font-size:13;" transform="matrix(1 0 0 1 1289 1971)">Symbols should be outlined when exporting to ensure the</text>
  <text style="stroke:none;fill:black;font-family:sans-serif;font-size:13;" transform="matrix(1 0 0 1 1289 1989)">design is preserved when submitting to Xcode.</text>
  <text id="template-version" style="stroke:none;fill:black;font-family:sans-serif;font-size:13;text-anchor:end;" transform="matrix(1 0 0 1 3036 1933)">Template v.3.0</text>
  <text style="stroke:none;fill:black;font-family:sans-serif;font-size:13;text-anchor:end;" transform="matrix(1 0 0 1 3036 1951)">Requires Xcode 13 or greater</text>
  <text id="descriptive-name" style="stroke:none;fill:black;font-family:sans-serif;font-size:13;text-anchor:end;" transform="matrix(1 0 0 1 3036 1969)">Generated from multiply</text>
  <text style="stroke:none;fill:black;font-family:sans-serif;font-size:13;text-anchor:end;" transform="matrix(1 0 0 1 3036 1987)">Typeset at 100 points</text>
  <text style="stroke:none;fill:black;font-family:sans-serif;font-size:13;" transform="matrix(1 0 0 1 263 726)">Small</text>
  <text style="stroke:none;fill:black;font-family:sans-serif;font-size:13;" transform="matrix(1 0 0 1 263 1156)">Medium</text>
  <text style="stroke:none;fill:black;font-family:sans-serif;font-size:13;" transform="matrix(1 0 0 1 263 1586)">Large</text>
 </g>
 <g id="Guides">
  <g id="H-reference" style="fill:#27AAE1;stroke:none;" transform="matrix(1 0 0 1 339 696)">
   <path d="M0.993347 0L3.6377 0L29.3282-67.1326L30.0301-67.1326L30.0301-70.459L28.1227-70.459ZM11.6882-24.4797L46.9818-24.4797L46.2311-26.7288L12.4382-26.7288ZM55.1193 0L57.7637 0L30.6381-70.459L29.4327-70.459L29.4327-67.1326Z"/>
  </g>
  <line id="Baseline-S" style="fill:none;stroke:#27AAE1;opacity:1;stroke-width:0.5;" x1="263" x2="3036" y1="696" y2="696"/>
  <line id="Capline-S" style="fill:none;stroke:#27AAE1;opacity:1;stroke-width:0.5;" x1="263" x2="3036" y1="625.541" y2="625.541"/>
  <g id="H-reference" style="fill:#27AAE1;stroke:none;" transform="matrix(1 0 0 1 339 1126)">
   <path d="M0.993347 0L3.6377 0L29.3282-67.1326L30.0301-67.1326L30.0301-70.459L28.1227-70.459ZM11.6882-24.4797L46.9818-24.4797L46.2311-26.7288L12.4382-26.7288ZM55.1193 0L57.7637 0L30.6381-70.459L29.4327-70.459L29.4327-67.1326Z"/>
  </g>
  <line id="Baseline-M" style="fill:none;stroke:#27AAE1;opacity:1;stroke-width:0.5;" x1="263" x2="3036" y1="1126" y2="1126"/>
  <line id="Capline-M" style="fill:none;stroke:#27AAE1;opacity:1;stroke-width:0.5;" x1="263" x2="3036" y1="1055.54" y2="1055.54"/>
  <g id="H-reference" style="fill:#27AAE1;stroke:none;" transform="matrix(1 0 0 1 339 1556)">
   <path d="M0.993347 0L3.6377 0L29.3282-67.1326L30.0301-67.1326L30.0301-70.459L28.1227-70.459ZM11.6882-24.4797L46.9818-24.4797L46.2311-26.7288L12.4382-26.7288ZM55.1193 0L57.7637 0L30.6381-70.459L29.4327-70.459L29.4327-67.1326Z"/>
  </g>
  <line id="Baseline-L" style="fill:none;stroke:#27AAE1;opacity:1;stroke-width:0.5;" x1="263" x2="3036" y1="1556" y2="1556"/>
  <line id="Capline-L" style="fill:none;stroke:#27AAE1;opacity:1;stroke-width:0.5;" x1="263" x2="3036" y1="1485.54" y2="1485.54"/>
  <line id="left-margin-Regular-M" style="fill:none;stroke:#00AEEF;stroke-width:0.5;opacity:1.0;" x1="1404.92" x2="1404.92" y1="1030.79" y2="1150.12"/>
  <line id="right-margin-Regular-M" style="fill:none;stroke:#00AEEF;stroke-width:0.5;opacity:1.0;" x1="1494.77" x2="1494.77" y1="1030.79" y2="1150.12"/>
 </g>
 <g id="Symbols">
  <g id="Black-L" transform="matrix(1 0 0 1 2871.92 1556)">
   <path d="M19.4903 6.85663Q22.8954 10.2825 27.9738 10.2429Q33.0523 10.2033 36.225 7.03185L61.5338-18.299L86.7478 6.97344Q90.0361 10.2617 95.0166 10.2429Q99.997 10.2241 103.462 6.79822Q106.888 3.39191 106.906-1.58851Q106.925-6.56894 103.637-9.91683L78.4229-35.1881L103.637-60.3801Q106.925-63.7488 106.906-68.7293Q106.888-73.7097 103.462-77.1148Q99.997-80.5211 95.0166-80.5503Q90.0361-80.5795 86.7478-77.29L61.5338-52.0772L36.225-77.3484Q33.0523-80.5211 27.9738-80.5503Q22.8954-80.5795 19.4903-77.1732Q16.0256-73.7681 16.084-68.7Q16.1424-63.632 19.3151-60.4385L44.6447-35.1881L19.3151-9.85842Q16.1424-6.68575 16.084-1.61772Q16.0256 3.45032 19.4903 6.85663Z"/>
  </g>
  <g id="Heavy-L" transform="matrix(1 0 0 1 2576.1 1556)">
   <path d="M19.043 6.4149Q21.9965 9.39851 26.4043 9.36108Q30.8122 9.32365 33.5927 6.54877L60.636-20.5303L87.6257 6.50414Q90.4899 9.36827 94.8158 9.36108Q99.1416 9.35389 102.145 6.37028Q105.129 3.41115 105.136-0.914645Q105.143-5.24044 102.279-8.15485L75.2893-35.1836L102.279-62.1376Q105.143-65.0823 105.136-69.4081Q105.129-73.7339 102.145-76.6873Q99.1416-79.6464 94.8158-79.6687Q90.4899-79.691 87.6257-76.8212L60.636-49.8371L33.5927-76.8658Q30.8122-79.6464 26.4043-79.6687Q21.9965-79.691 19.043-76.732Q16.0394-73.7785 16.084-69.3858Q16.1286-64.993 18.9091-62.1823L45.9825-35.1836L18.9091-8.11023Q16.1286-5.32968 16.084-0.936956Q16.0394 3.45577 19.043 6.4149Z"/>
  </g>
  <g id="Bold-L" transform="matrix(1 0 0 1 2280.49 1556)">
   <path d="M18.4972 5.86189Q20.8973 8.29985 24.4827 8.2662Q28.0681 8.23255 30.3645 5.9495L59.5219-23.2591L88.6719 5.9203Q91.0136 8.26175 94.5363 8.2662Q98.0589 8.27065 100.501 5.83269Q102.939 3.41927 102.935-0.103285Q102.93-3.62584 100.589-6.00983L71.4387-35.1759L100.589-64.275Q102.93-66.6971 102.935-70.2196Q102.939-73.7422 100.501-76.1423Q98.0589-78.5555 94.5363-78.5701Q91.0136-78.5847 88.6719-76.2299L59.5219-47.093L30.3645-76.2591Q28.0681-78.5555 24.4827-78.5701Q20.8973-78.5847 18.4972-76.1715Q16.0548-73.7714 16.084-70.205Q16.1132-66.6387 18.4096-64.3042L47.6049-35.1759L18.4096-5.98063Q16.1132-3.68425 16.084-0.117886Q16.0548 3.44847 18.4972 5.86189Z"/>
  </g>
  <g id="Semibold-L" transform="matrix(1 0 0 1 1984.53 1556)">
   <path d="M18.1209 5.48065Q20.1395 7.54245 23.1579 7.5114Q26.1763 7.48035 28.1389 5.53637L58.7539-25.1404L89.3932 5.5178Q91.3746 7.49892 94.3436 7.5114Q97.3126 7.52388 99.368 5.46208Q101.43 3.42487 101.417 0.456062Q101.405-2.51274 99.4237-4.53107L68.7841-35.1707L99.4237-65.7484Q101.405-67.8103 101.417-70.7791Q101.43-73.7479 99.368-75.7665Q97.3126-77.8034 94.3436-77.8127Q91.3746-77.822 89.3932-75.8222L58.7539-45.2012L28.1389-75.8408Q26.1763-77.8034 23.1579-77.8127Q20.1395-77.822 18.1209-75.7851Q16.0654-73.7665 16.084-70.7698Q16.1026-67.7731 18.0652-65.767L48.7233-35.1707L18.0652-4.5125Q16.1026-2.54989 16.084 0.446775Q16.0654 3.44344 18.1209 5.48065Z"/>
  </g>
  <g id="Medium-L" transform="matrix(1 0 0 1 1688.39 1556)">
   <path d="M17.8356 5.19158Q19.5649 6.96815 22.1534 6.93908Q24.7419 6.91 26.4514 5.22312L58.1715-26.5669L89.9401 5.21261Q91.6484 6.92051 94.1975 6.93908Q96.7466 6.95764 98.5087 5.18107Q100.285 3.42911 100.267 0.880182Q100.248-1.66875 98.5402-3.40981L66.7713-35.1666L98.5402-66.8657Q100.248-68.6544 100.267-71.2033Q100.285-73.7523 98.5087-75.4816Q96.7466-77.2331 94.1975-77.2384Q91.6484-77.2437 89.9401-75.5131L58.1715-43.7668L26.4514-75.5236Q24.7419-77.2331 22.1534-77.2384Q19.5649-77.2437 17.8356-75.4921Q16.0735-73.7628 16.084-71.1981Q16.0945-68.6334 17.804-66.8762L49.5714-35.1666L17.804-3.3993Q16.0945-1.68978 16.084 0.874925Q16.0735 3.43963 17.8356 5.19158Z"/>
  </g>
  <g id="Regular-L" transform="matrix(1 0 0 1 1392.43 1556)">
   <path d="M17.4634 4.81453Q18.8154 6.21907 20.8432 6.19257Q22.8709 6.16607 24.2504 4.81453L57.4119-28.4274L90.6534 4.81453Q92.0054 6.16607 94.0069 6.19257Q96.0084 6.21907 97.3879 4.81453Q98.7924 3.43465 98.7659 1.43338Q98.7394-0.567885 97.3879-1.9473L64.1459-35.1614L97.3879-68.323Q98.7394-69.7554 98.7659-71.7567Q98.7924-73.7579 97.3879-75.1099Q96.0084-76.4893 94.0069-76.4893Q92.0054-76.4893 90.6534-75.1099L57.4119-41.8958L24.2504-75.1099Q22.8709-76.4893 20.8432-76.4893Q18.8154-76.4893 17.4634-75.1099Q16.084-73.7579 16.084-71.7567Q16.084-69.7554 17.4634-68.323L50.6775-35.1614L17.4634-1.9473Q16.084-0.567885 16.084 1.43338Q16.084 3.43465 17.4634 4.81453Z"/>
  </g>
  <g id="Light-L" transform="matrix(1 0 0 1 1096.5 1556)">
   <path d="M17.1389 4.39479Q18.1475 5.43667 19.66 5.41963Q21.1724 5.40259 22.2273 4.39479L56.6295-30.0878L91.1113 4.39479Q92.1199 5.40259 93.6157 5.41963Q95.1116 5.43667 96.1665 4.39479Q97.2084 3.33909 97.1913 1.84366Q97.1743 0.348228 96.1665-0.706685L61.6839-35.1422L96.1665-69.5443Q97.1743-70.6333 97.1913-72.1288Q97.2084-73.6242 96.1665-74.6328Q95.1116-75.6877 93.6157-75.6877Q92.1199-75.6877 91.1113-74.6328L56.6295-40.1973L22.2273-74.6328Q21.1724-75.6877 19.66-75.6877Q18.1475-75.6877 17.1389-74.6328Q16.084-73.6242 16.084-72.1288Q16.084-70.6333 17.1389-69.5443L51.5744-35.1422L17.1389-0.706685Q16.084 0.348228 16.084 1.84366Q16.084 3.33909 17.1389 4.39479Z"/>
  </g>
  <g id="Thin-L" transform="matrix(1 0 0 1 800.828 1556)">
   <path d="M16.7097 3.83966Q17.2641 4.40189 18.095 4.39735Q18.926 4.39282 19.5517 3.83966L55.5947-32.2838L91.7169 3.83966Q92.2713 4.39282 93.0983 4.39735Q93.9254 4.40189 94.5511 3.83966Q95.1133 3.21271 95.1088 2.38629Q95.1043 1.55986 94.5511 0.934131L58.4277-35.1167L94.5511-71.1597Q95.1043-71.7945 95.1088-72.6209Q95.1133-73.4474 94.5511-74.0017Q93.9254-74.6275 93.0983-74.6275Q92.2713-74.6275 91.7169-74.0017L55.5947-37.9509L19.5517-74.0017Q18.926-74.6275 18.095-74.6275Q17.2641-74.6275 16.7097-74.0017Q16.084-73.4474 16.084-72.6209Q16.084-71.7945 16.7097-71.1597L52.7606-35.1167L16.7097 0.934131Q16.084 1.55986 16.084 2.38629Q16.084 3.21271 16.7097 3.83966Z"/>
  </g>
  <g id="Ultralight-L" transform="matrix(1 0 0 1 504.647 1556)">
   <path d="M16.4899 3.55532Q16.8116 3.87187 17.2935 3.87375Q17.7754 3.87562 18.1813 3.55532L55.0647-33.4085L92.0271 3.55532Q92.3489 3.87562 92.8333 3.87375Q93.3178 3.87187 93.7237 3.55532Q94.0403 3.14798 94.0422 2.66422Q94.044 2.18045 93.7237 1.77455L56.7599-35.1037L93.7237-71.9871Q94.044-72.3892 94.0422-72.873Q94.0403-73.3568 93.7237-73.6785Q93.3178-74.0844 92.8333-74.0844Q92.3489-74.0844 92.0271-73.6785L55.0647-36.8003L18.1813-73.6785Q17.7754-74.0844 17.2935-74.0844Q16.8116-74.0844 16.4899-73.6785Q16.084-73.3568 16.084-72.873Q16.084-72.3892 16.4899-71.9871L53.3681-35.1037L16.4899 1.77455Q16.084 2.18045 16.084 2.66422Q16.084 3.14798 16.4899 3.55532Z"/>
  </g>
  <g id="Black-M" transform="matrix(1 0 0 1 2885.12 1126)">
   <path d="M15.4404-2.30084Q18.4201 0.684358 22.8611 0.653065Q27.3021 0.621773 30.0531-2.12955L48.3384-20.4201L66.5148-2.18665Q69.3803 0.678869 73.7329 0.653065Q78.0855 0.627262 81.122-2.35793Q84.1072-5.33735 84.133-9.68997Q84.1588-14.0426 81.2933-16.9649L63.117-35.1986L81.2933-53.3697Q84.1588-56.2976 84.133-60.6502Q84.1072-65.0028 81.122-67.9825Q78.0855-70.9619 73.7329-70.9905Q69.3803-71.019 66.5148-68.1538L48.3384-49.9772L30.0531-68.2109Q27.3021-70.9619 22.8611-70.9905Q18.4201-71.019 15.4404-68.0396Q12.4038-65.0599 12.4609-60.6216Q12.518-56.1834 15.2691-53.4268L33.5599-35.1986L15.2691-16.9078Q12.518-14.1568 12.4609-9.71852Q12.4038-5.28026 15.4404-2.30084Z"/>
  </g>
  <g id="Heavy-M" transform="matrix(1 0 0 1 2589.2 1126)">
   <path d="M15.0331-2.69394Q17.6029-0.107672 21.4359-0.137697Q25.2689-0.167722 27.6666-2.56307L47.5329-22.4481L67.3307-2.6067Q69.8133-0.124101 73.5727-0.137697Q77.332-0.151293 79.9478-2.73756Q82.5341-5.30973 82.5477-9.06907Q82.5612-12.8284 80.0787-15.3569L60.2808-35.196L80.0787-54.9752Q82.5612-57.5201 82.5477-61.2794Q82.5341-65.0388 79.9478-67.6087Q77.332-70.1808 73.5727-70.2026Q69.8133-70.2244 67.3307-67.7395L47.5329-47.944L27.6666-67.7831Q25.2689-70.1808 21.4359-70.2026Q17.6029-70.2244 15.0331-67.6523Q12.4173-65.0824 12.4609-61.2576Q12.5046-57.4329 14.9022-55.0188L34.785-35.196L14.9022-15.3133Q12.5046-12.9156 12.4609-9.09088Q12.4173-5.26611 15.0331-2.69394Z"/>
  </g>
  <g id="Bold-M" transform="matrix(1 0 0 1 2293.37 1126)">
   <path d="M14.5775-3.13368Q16.6889-0.993671 19.8417-1.02228Q22.9945-1.05089 24.9969-3.04803L46.6319-24.7168L68.2434-3.07658Q70.2978-1.02234 73.3935-1.02228Q76.4892-1.02222 78.6342-3.16223Q80.7742-5.27883 80.7742-8.3745Q80.7741-11.4702 78.7199-13.5581L57.1082-35.1932L78.7199-56.7711Q80.7741-58.8877 80.7742-61.9834Q80.7742-65.079 78.6342-67.1905Q76.4892-69.307 73.3935-69.3213Q70.2978-69.3355 68.2434-67.2761L46.6319-45.6696L24.9969-67.3047Q22.9945-69.307 19.8417-69.3213Q16.6889-69.3355 14.5775-67.219Q12.4324-65.1076 12.4609-61.9691Q12.4895-58.8306 14.4918-56.7996L36.1554-35.1932L14.4918-13.5296Q12.4895-11.5273 12.4609-8.38877Q12.4324-5.25028 14.5775-3.13368Z"/>
  </g>
  <g id="Semibold-M" transform="matrix(1 0 0 1 1997.27 1126)">
   <path d="M14.2634-3.43683Q16.0587-1.60447 18.7427-1.6321Q21.4266-1.65973 23.1564-3.38236L46.0107-26.2808L68.8727-3.40052Q70.6317-1.64158 73.2699-1.6321Q75.9081-1.62263 77.7287-3.45499Q79.561-5.25753 79.5516-7.89566Q79.5421-10.5338 77.7832-12.3181L54.921-35.1912L77.7832-58.0091Q79.5421-59.8305 79.5516-62.4687Q79.561-65.1068 77.7287-66.9022Q75.9081-68.7046 73.2699-68.7137Q70.6317-68.7227 68.8727-66.9566L46.0107-44.1017L23.1564-66.9748Q21.4266-68.7046 18.7427-68.7137Q16.0587-68.7227 14.2634-66.9203Q12.4428-65.1249 12.4609-62.4596Q12.4791-59.7942 14.2089-58.0273L37.1002-35.1912L14.2089-12.2999Q12.4791-10.5701 12.4609-7.90474Q12.4428-5.23937 14.2634-3.43683Z"/>
  </g>
  <g id="Medium-M" transform="matrix(1 0 0 1 1701.03 1126)">
   <path d="M14.0252-3.6667Q15.5809-2.06761 17.9093-2.0945Q20.2377-2.12139 21.7608-3.63586L45.5396-27.4667L69.3498-3.64614Q70.8849-2.11111 73.1762-2.0945Q75.4675-2.07789 77.0421-3.67697Q78.6411-5.24138 78.6245-7.53259Q78.6079-9.82381 77.0729-11.3778L53.2626-35.1897L77.0729-58.9479Q78.6079-60.5454 78.6245-62.8366Q78.6411-65.1278 77.0421-66.6836Q75.4675-68.2478 73.1762-68.253Q70.8849-68.2581 69.3498-66.7144L45.5396-42.9128L21.7608-66.7247Q20.2377-68.2478 17.9093-68.253Q15.5809-68.2581 14.0252-66.6938Q12.4507-65.1381 12.4609-62.8315Q12.4712-60.5248 13.9944-58.9582L37.8165-35.1897L13.9944-11.3675Q12.4712-9.84437 12.4609-7.53773Q12.4507-5.2311 14.0252-3.6667Z"/>
  </g>
  <g id="Regular-M" transform="matrix(1 0 0 1 1404.92 1126)">
   <path d="M13.7145-3.96652Q14.9577-2.6717 16.8223-2.69762Q18.687-2.72355 19.9406-3.96652L44.9253-29.0135L69.9721-3.96652Q71.2152-2.72355 73.054-2.69762Q74.8928-2.6717 76.1465-3.96652Q77.4413-5.22031 77.4154-7.05902Q77.3894-8.89774 76.1465-10.1513L51.0995-35.1877L76.1465-60.1724Q77.3894-61.4778 77.4154-63.3166Q77.4413-65.1553 76.1465-66.3984Q74.8928-67.652 73.054-67.652Q71.2152-67.652 69.9721-66.3984L44.9253-41.3621L19.9406-66.3984Q18.687-67.652 16.8223-67.652Q14.9577-67.652 13.7145-66.3984Q12.4609-65.1553 12.4609-63.3166Q12.4609-61.4778 13.7145-60.1724L38.7509-35.1877L13.7145-10.1513Q12.4609-8.89774 12.4609-7.05902Q12.4609-5.22031 13.7145-3.96652Z"/>
  </g>
  <g id="Light-M" transform="matrix(1 0 0 1 1108.91 1126)">
   <path d="M13.4236-4.34284Q14.3589-3.37316 15.7615-3.3906Q17.1642-3.40805 18.1268-4.34284L44.2238-30.5021L70.3826-4.34284Q71.3179-3.40805 72.7033-3.3906Q74.0888-3.37316 75.0514-4.34284Q76.0211-5.30598 76.0037-6.69119Q75.9862-8.0764 75.0514-9.03907L48.8922-35.1705L75.0514-61.2674Q75.9862-62.265 76.0037-63.6502Q76.0211-65.0354 75.0514-65.9707Q74.0888-66.9333 72.7033-66.9333Q71.3179-66.9333 70.3826-65.9707L44.2238-39.8393L18.1268-65.9707Q17.1642-66.9333 15.7615-66.9333Q14.3589-66.9333 13.4236-65.9707Q12.4609-65.0354 12.4609-63.6502Q12.4609-62.265 13.4236-61.2674L39.555-35.1705L13.4236-9.03907Q12.4609-8.0764 12.4609-6.69119Q12.4609-5.30598 13.4236-4.34284Z"/>
  </g>
  <g id="Thin-M" transform="matrix(1 0 0 1 813.126 1126)">
   <path d="M13.0388-4.84055Q13.5669-4.3009 14.3585-4.30713Q15.1501-4.31335 15.728-4.84055L43.2961-32.4709L70.9256-4.84055Q71.4536-4.31335 72.2394-4.30713Q73.0253-4.3009 73.6032-4.84055Q74.1428-5.41928 74.1366-6.20469Q74.1304-6.9901 73.6032-7.568L45.9728-35.1476L73.6032-62.7157Q74.1304-63.306 74.1366-64.0914Q74.1428-64.8768 73.6032-65.4049Q73.0253-65.9828 72.2394-65.9828Q71.4536-65.9828 70.9256-65.4049L43.2961-37.8252L15.728-65.4049Q15.1501-65.9828 14.3585-65.9828Q13.5669-65.9828 13.0388-65.4049Q12.4609-64.8768 12.4609-64.0914Q12.4609-63.306 13.0388-62.7157L40.6185-35.1476L13.0388-7.568Q12.4609-6.9901 12.4609-6.20469Q12.4609-5.41928 13.0388-4.84055Z"/>
  </g>
  <g id="Ultralight-M" transform="matrix(1 0 0 1 516.891 1126)">
   <path d="M12.8417-5.09547Q13.1612-4.77609 13.6399-4.77657Q14.1186-4.77705 14.4994-5.09547L42.8209-33.4793L71.2037-5.09547Q71.5231-4.77705 72.0018-4.77657Q72.4806-4.77609 72.8614-5.09547Q73.1808-5.47732 73.1803-5.95551Q73.1798-6.43371 72.8614-6.81452L44.4776-35.136L72.8614-63.4575Q73.1798-63.8392 73.1803-64.3174Q73.1808-64.7956 72.8614-65.1151Q72.4806-65.4959 72.0018-65.4959Q71.5231-65.4959 71.2037-65.1151L42.8209-36.7937L14.4994-65.1151Q14.1186-65.4959 13.6399-65.4959Q13.1612-65.4959 12.8417-65.1151Q12.4609-64.7956 12.4609-64.3174Q12.4609-63.8392 12.8417-63.4575L41.1632-35.136L12.8417-6.81452Q12.4609-6.43371 12.4609-5.95551Q12.4609-5.47732 12.8417-5.09547Z"/>
  </g>
  <g id="Black-S" transform="matrix(1 0 0 1 2895.36 696)">
   <path d="M12.207-9.32617Q14.6484-6.88477 18.2861-6.90918Q21.9238-6.93359 24.1699-9.17969L38.0859-23.0957L51.9043-9.22852Q54.248-6.88477 57.8125-6.90918Q61.377-6.93359 63.8672-9.375Q66.3086-11.8164 66.333-15.3809Q66.3574-18.9453 64.0137-21.3379L50.1953-35.2051L64.0137-49.0234Q66.3574-51.416 66.333-54.9805Q66.3086-58.5449 63.8672-60.9863Q61.377-63.4277 57.8125-63.4521Q54.248-63.4766 51.9043-61.1328L38.0859-47.3145L24.1699-61.1816Q21.9238-63.4277 18.2861-63.4521Q14.6484-63.4766 12.207-61.0352Q9.7168-58.5938 9.76562-54.9561Q9.81445-51.3184 12.0605-49.0723L25.9766-35.2051L12.0605-21.2891Q9.81445-19.043 9.76562-15.4053Q9.7168-11.7676 12.207-9.32617Z"/>
  </g>
  <g id="Heavy-S" transform="matrix(1 0 0 1 2599.24 696)">
   <path d="M11.8959-9.61428Q14.0261-7.47251 17.2028-7.49693Q20.3795-7.52134 22.3606-9.50237L37.4867-24.64L52.5497-9.53968Q54.6053-7.48404 57.7203-7.49693Q60.8353-7.50982 63.0029-9.65159Q65.1446-11.7818 65.1575-14.8968Q65.1704-18.0118 63.1148-20.1048L48.0518-35.2051L63.1148-50.2566Q65.1704-52.361 65.1575-55.476Q65.1446-58.591 63.0029-60.7213Q60.8353-62.8515 57.7203-62.8702Q54.6053-62.8888 52.5497-60.8332L37.4867-45.7702L22.3606-60.8705Q20.3795-62.8515 17.2028-62.8702Q14.0261-62.8888 11.8959-60.7586Q9.72832-58.6283 9.76562-55.4574Q9.80293-52.2864 11.784-50.2939L26.9216-35.2051L11.784-20.0675Q9.80293-18.0864 9.76562-14.9155Q9.72832-11.7445 11.8959-9.61428Z"/>
  </g>
  <g id="Bold-S" transform="matrix(1 0 0 1 2303.19 696)">
   <path d="M11.5479-9.93652Q13.3301-8.12988 15.9912-8.1543Q18.6523-8.17871 20.3369-9.86328L36.8164-26.3672L53.2715-9.8877Q55.0049-8.1543 57.6172-8.1543Q60.2295-8.1543 62.0361-9.96094Q63.8428-11.7432 63.8428-14.3555Q63.8428-16.9678 62.1094-18.7256L45.6543-35.2051L62.1094-51.6357Q63.8428-53.418 63.8428-56.0303Q63.8428-58.6426 62.0361-60.4248Q60.2295-62.207 57.6172-62.2192Q55.0049-62.2314 53.2715-60.498L36.8164-44.043L20.3369-60.5225Q18.6523-62.207 15.9912-62.2192Q13.3301-62.2314 11.5479-60.4492Q9.74121-58.667 9.76562-56.0181Q9.79004-53.3691 11.4746-51.6602L27.9785-35.2051L11.4746-18.7012Q9.79004-17.0166 9.76562-14.3677Q9.74121-11.7188 11.5479-9.93652Z"/>
  </g>
  <g id="Semibold-S" transform="matrix(1 0 0 1 2006.93 696)">
   <path d="M11.3079-10.1587Q12.8502-8.58311 15.1559-8.60752Q17.4615-8.63193 18.9417-10.1121L36.3543-27.558L53.7691-10.1276Q55.2804-8.61641 57.5461-8.60752Q59.8118-8.59863 61.3696-10.1742Q62.9452-11.7165 62.9363-13.9822Q62.9274-16.2479 61.4162-17.7747L44.0014-35.2051L61.4162-52.5866Q62.9274-54.1467 62.9363-56.4124Q62.9452-58.6781 61.3696-60.2204Q59.8118-61.7627 57.5461-61.7705Q55.2804-61.7782 53.7691-60.267L36.3543-42.8521L18.9417-60.2825Q17.4615-61.7627 15.1559-61.7705Q12.8502-61.7782 11.3079-60.2359Q9.7501-58.6937 9.76562-56.4046Q9.78115-54.1156 11.2613-52.6021L28.7072-35.2051L11.2613-17.7592Q9.78115-16.279 9.76562-13.99Q9.7501-11.701 11.3079-10.1587Z"/>
  </g>
  <g id="Medium-S" transform="matrix(1 0 0 1 1710.56 696)">
   <path d="M11.126-10.3271Q12.4863-8.92676 14.5225-8.95117Q16.5586-8.97559 17.8838-10.3008L36.0039-28.4609L54.1465-10.3096Q55.4893-8.9668 57.4922-8.95117Q59.4951-8.93555 60.8643-10.3359Q62.2646-11.6963 62.249-13.6992Q62.2334-15.7021 60.8906-17.0537L42.748-35.2051L60.8906-53.3076Q62.2334-54.6992 62.249-56.7021Q62.2646-58.7051 60.8643-60.0654Q59.4951-61.4258 57.4922-61.4302Q55.4893-61.4346 54.1465-60.0918L36.0039-41.9492L17.8838-60.1006Q16.5586-61.4258 14.5225-61.4302Q12.4863-61.4346 11.126-60.0742Q9.75684-58.7139 9.76562-56.6978Q9.77441-54.6816 11.0996-53.3164L29.2598-35.2051L11.0996-17.0449Q9.77441-15.7197 9.76562-13.7036Q9.75684-11.6875 11.126-10.3271Z"/>
  </g>
  <g id="Regular-S" transform="matrix(1 0 0 1 1414.3 696)">
   <path d="M10.8887-10.5469Q12.0117-9.375 13.6963-9.39941Q15.3809-9.42383 16.5039-10.5469L35.5469-29.6387L54.6387-10.5469Q55.7617-9.42383 57.4219-9.39941Q59.082-9.375 60.2051-10.5469Q61.377-11.6699 61.3525-13.3301Q61.3281-14.9902 60.2051-16.1133L41.1133-35.2051L60.2051-54.248Q61.3281-55.4199 61.3525-57.0801Q61.377-58.7402 60.2051-59.8633Q59.082-60.9863 57.4219-60.9863Q55.7617-60.9863 54.6387-59.8633L35.5469-40.7715L16.5039-59.8633Q15.3809-60.9863 13.6963-60.9863Q12.0117-60.9863 10.8887-59.8633Q9.76562-58.7402 9.76562-57.0801Q9.76562-55.4199 10.8887-54.248L29.9805-35.2051L10.8887-16.1133Q9.76562-14.9902 9.76562-13.3301Q9.76562-11.6699 10.8887-10.5469Z"/>
  </g>
  <g id="Light-S" transform="matrix(1 0 0 1 1118.21 696)">
   <path d="M10.6313-10.8798Q11.482-9.99552 12.7579-10.0124Q14.0338-10.0293 14.8994-10.8798L34.9264-30.9555L55.0018-10.8798Q55.8525-10.0293 57.1116-10.0124Q58.3707-9.99552 59.2364-10.8798Q60.1206-11.7457 60.1037-13.0047Q60.0868-14.2637 59.2364-15.1293L39.1607-35.1898L59.2364-55.2167Q60.0868-56.1162 60.1037-57.3752Q60.1206-58.6342 59.2364-59.4849Q58.3707-60.3505 57.1116-60.3505Q55.8525-60.3505 55.0018-59.4849L34.9264-39.4244L14.8994-59.4849Q14.0338-60.3505 12.7579-60.3505Q11.482-60.3505 10.6313-59.4849Q9.76562-58.6342 9.76562-57.3752Q9.76562-56.1162 10.6313-55.2167L30.6918-35.1898L10.6313-15.1293Q9.76562-14.2637 9.76562-13.0047Q9.76562-11.7457 10.6313-10.8798Z"/>
  </g>
  <g id="Thin-S" transform="matrix(1 0 0 1 822.317 696)">
   <path d="M10.2909-11.3201Q10.7814-10.8162 11.5167-10.8232Q12.2521-10.8302 12.7774-11.3201L34.1057-32.6971L55.4821-11.3201Q55.9726-10.8302 56.7013-10.8232Q57.4299-10.8162 57.9552-11.3201Q58.4591-11.8459 58.4521-12.5743Q58.4451-13.3027 57.9552-13.828L36.5782-35.1696L57.9552-56.4979Q58.4451-57.0372 58.4521-57.7655Q58.4591-58.4939 57.9552-58.9844Q57.4299-59.5097 56.7013-59.5097Q55.9726-59.5097 55.4821-58.9844L34.1057-37.6427L12.7774-58.9844Q12.2521-59.5097 11.5167-59.5097Q10.7814-59.5097 10.2909-58.9844Q9.76562-58.4939 9.76562-57.7655Q9.76562-57.0372 10.2909-56.4979L31.6326-35.1696L10.2909-13.828Q9.76562-13.3027 9.76562-12.5743Q9.76562-11.8459 10.2909-11.3201Z"/>
  </g>
  <g id="Ultralight-S" transform="matrix(1 0 0 1 526.026 696)">
   <path d="M10.1166-11.5456Q10.4225-11.2366 10.881-11.2385Q11.3396-11.2404 11.6905-11.5456L33.6853-33.5892L55.7281-11.5456Q56.0341-11.2404 56.4911-11.2385Q56.9481-11.2366 57.299-11.5456Q57.608-11.8973 57.6061-12.3539Q57.6042-12.8105 57.299-13.1615L35.2554-35.1593L57.299-57.1541Q57.6042-57.5089 57.6061-57.9655Q57.608-58.4221 57.299-58.728Q56.9481-59.079 56.4911-59.079Q56.0341-59.079 55.7281-58.728L33.6853-36.7302L11.6905-58.728Q11.3396-59.079 10.881-59.079Q10.4225-59.079 10.1166-58.728Q9.76562-58.4221 9.76562-57.9655Q9.76562-57.5089 10.1166-57.1541L32.1144-35.1593L10.1166-13.1615Q9.76562-12.8105 9.76562-12.3539Q9.76562-11.8973 10.1166-11.5456Z"/>
  </g>
 </g>
</svg>
