<svg width="308" height="35" viewBox="0 0 308 35" fill="none" xmlns="http://www.w3.org/2000/svg">
<rect width="308" height="35" rx="14" fill="#B7D2CC"/>
<path d="M145.204 20V18.335H146.826C147.134 18.335 147.335 18.292 147.428 18.2061C147.521 18.1201 147.549 17.9089 147.514 17.5723C147.464 17.0566 147.41 16.541 147.353 16.0254C147.295 15.5026 147.234 14.9727 147.17 14.4355C147.105 13.8913 147.034 13.3291 146.955 12.749C146.883 12.1689 146.805 11.5566 146.719 10.9121C146.633 10.2676 146.54 9.58008 146.439 8.84961L147.825 8.75293C147.911 9.54069 147.997 10.375 148.083 11.2559C148.169 12.1296 148.248 12.9746 148.319 13.791C148.398 14.6003 148.463 15.3092 148.513 15.918C148.563 16.5195 148.599 16.9456 148.62 17.1963C148.649 17.6403 148.634 18.027 148.577 18.3564C148.527 18.6787 148.387 19.0153 148.158 19.3662C147.993 19.6169 147.797 19.7852 147.567 19.8711C147.345 19.957 147.03 20 146.622 20H145.204ZM145.204 20C145.011 20 144.882 19.9284 144.817 19.7852C144.753 19.6419 144.721 19.4378 144.721 19.1729C144.721 18.8721 144.749 18.6572 144.807 18.5283C144.871 18.3994 145.004 18.335 145.204 18.335V20ZM140.295 19.8496L140.886 18.335H146.278V20H144.302L144.667 19.377C145.054 19.9857 145.247 20.5837 145.247 21.1709C145.247 21.7868 145.032 22.349 144.603 22.8574C144.18 23.3659 143.586 23.7956 142.819 24.1465C142.232 24.4186 141.552 24.6549 140.778 24.8555C140.012 25.056 139.271 25.1562 138.555 25.1562C137.516 25.1562 136.657 24.9414 135.977 24.5117C135.303 24.0892 134.799 23.5091 134.462 22.7715C134.132 22.041 133.968 21.2103 133.968 20.2793C133.968 19.1908 134.183 18.0449 134.612 16.8418L135.558 17.0889C135.414 17.5902 135.303 18.07 135.225 18.5283C135.153 18.9795 135.117 19.4056 135.117 19.8066C135.117 20.8809 135.396 21.7367 135.955 22.374C136.521 23.0114 137.416 23.3301 138.641 23.3301C139.163 23.3301 139.718 23.2728 140.306 23.1582C140.893 23.0508 141.451 22.9076 141.981 22.7285C142.612 22.5137 143.124 22.2738 143.518 22.0088C143.911 21.751 144.108 21.4932 144.108 21.2354C144.108 21.0993 144.044 20.9632 143.915 20.8271C143.793 20.6911 143.596 20.5658 143.324 20.4512C143.088 20.3366 142.787 20.2399 142.422 20.1611C142.064 20.0895 141.695 20.0358 141.315 20C140.943 19.9714 140.621 19.9535 140.349 19.9463L140.295 19.8496ZM146.278 20V18.335C146.479 18.335 146.608 18.3994 146.665 18.5283C146.729 18.6572 146.762 18.8721 146.762 19.1729C146.762 19.4378 146.729 19.6419 146.665 19.7852C146.601 19.9284 146.472 20 146.278 20ZM140.521 28.6582L138.974 27.5088L139.897 26.3271L141.434 27.4873L140.521 28.6582ZM138.05 28.6582L136.503 27.5088L137.427 26.3271L138.963 27.4873L138.05 28.6582ZM153.873 20C153.436 20 153.071 19.957 152.777 19.8711C152.491 19.7852 152.251 19.6527 152.058 19.4736C151.886 19.3089 151.743 19.1048 151.628 18.8613C151.521 18.6178 151.42 18.2526 151.327 17.7656C151.241 17.2786 151.141 16.5876 151.026 15.6924C150.905 14.654 150.794 13.7624 150.693 13.0176C150.6 12.2656 150.511 11.5674 150.425 10.9229C150.339 10.2783 150.246 9.58724 150.146 8.84961L151.531 8.74219C151.581 9.23633 151.635 9.79134 151.692 10.4072C151.757 11.0231 151.828 11.7572 151.907 12.6094C151.993 13.4616 152.093 14.4893 152.208 15.6924C152.28 16.5016 152.351 17.0602 152.423 17.3682C152.502 17.6761 152.613 17.9017 152.756 18.0449C152.949 18.2383 153.322 18.335 153.873 18.335V20ZM153.873 20V18.335C154.074 18.335 154.202 18.3994 154.26 18.5283C154.324 18.6572 154.356 18.8721 154.356 19.1729C154.356 19.4378 154.324 19.6419 154.26 19.7852C154.195 19.9284 154.066 20 153.873 20ZM153.884 20V18.335H156.483C156.677 18.335 156.799 18.2992 156.849 18.2275C156.899 18.1488 156.899 17.9805 156.849 17.7227L156.258 14.5537L157.472 14.457C157.672 15.2949 157.833 16.0576 157.955 16.7451C158.084 17.4255 158.163 18.0736 158.191 18.6895L157.794 18.335H159.319V20H159.008C158.65 20 158.317 19.9642 158.009 19.8926C157.701 19.821 157.425 19.7279 157.182 19.6133L157.977 19.6562C157.69 19.7708 157.282 19.8568 156.752 19.9141C156.229 19.9714 155.617 20 154.915 20H153.884ZM159.319 20V18.335C159.52 18.335 159.649 18.3994 159.706 18.5283C159.771 18.6572 159.803 18.8721 159.803 19.1729C159.803 19.4378 159.771 19.6419 159.706 19.7852C159.642 19.9284 159.513 20 159.319 20ZM153.884 20C153.69 20 153.562 19.9284 153.497 19.7852C153.433 19.6419 153.4 19.4378 153.4 19.1729C153.4 18.8721 153.433 18.6572 153.497 18.5283C153.554 18.3994 153.683 18.335 153.884 18.335V20ZM157.805 13.168L156.258 12.0186L157.182 10.8369L158.718 11.9971L157.805 13.168ZM155.334 13.168L153.787 12.0186L154.711 10.8369L156.247 11.9971L155.334 13.168ZM159.319 20V18.335H160.941C161.249 18.335 161.45 18.292 161.543 18.2061C161.636 18.1201 161.665 17.9089 161.629 17.5723C161.579 17.0566 161.525 16.541 161.468 16.0254C161.41 15.5026 161.35 14.9727 161.285 14.4355C161.221 13.8913 161.149 13.3291 161.07 12.749C160.999 12.1689 160.92 11.5566 160.834 10.9121C160.748 10.2676 160.655 9.58008 160.555 8.84961L161.94 8.75293C162.026 9.54069 162.112 10.375 162.198 11.2559C162.284 12.1296 162.363 12.9746 162.435 13.791C162.513 14.6003 162.578 15.3092 162.628 15.918C162.678 16.5195 162.714 16.9456 162.735 17.1963C162.764 17.6403 162.75 18.027 162.692 18.3564C162.642 18.6787 162.503 19.0153 162.273 19.3662C162.109 19.6169 161.912 19.7852 161.683 19.8711C161.461 19.957 161.146 20 160.737 20H159.319ZM159.319 20C159.126 20 158.997 19.9284 158.933 19.7852C158.868 19.6419 158.836 19.4378 158.836 19.1729C158.836 18.8721 158.868 18.6572 158.933 18.5283C158.99 18.3994 159.119 18.335 159.319 18.335V20ZM165.571 20C165.414 18.2598 165.22 16.4336 164.991 14.5215C164.762 12.6022 164.519 10.7116 164.261 8.84961L165.646 8.74219C165.861 10.7402 166.055 12.638 166.227 14.4355C166.398 16.2259 166.556 18.0807 166.699 20H165.571Z" fill="white"/>
</svg>
