<svg width="58" height="58" viewBox="0 0 58 58" fill="none" xmlns="http://www.w3.org/2000/svg">
<path fill-rule="evenodd" clip-rule="evenodd" d="M29 54.5C43.083 54.5 54.5 43.0831 54.5 29C54.5 14.9169 43.083 3.50002 29 3.50002C14.9169 3.50002 3.49996 14.9169 3.49996 29C3.49996 43.0831 14.9169 54.5 29 54.5ZM29 57.3334C44.6485 57.3334 57.3333 44.6485 57.3333 29C57.3333 13.3515 44.6485 0.666687 29 0.666687C13.3515 0.666687 0.666626 13.3515 0.666626 29C0.666626 44.6485 13.3515 57.3334 29 57.3334Z" fill="#8BAAB0"/>
<path d="M12 45.4759C12 44.0125 13.0937 42.7757 14.55 42.6142C25.4796 41.4044 32.57 41.5135 43.4755 42.6411C44.0201 42.6983 44.5362 42.9129 44.9609 43.2586C45.3855 43.6043 45.7003 44.0661 45.8668 44.5878C46.0333 45.1095 46.0442 45.6683 45.8983 46.1961C45.7524 46.7239 45.456 47.1977 45.0452 47.5598C32.1748 58.7784 24.8194 58.624 12.9067 47.5711C12.3258 47.0328 12 46.2678 12 45.4773V45.4759Z" fill="#8BAAB0"/>
<path fill-rule="evenodd" clip-rule="evenodd" d="M43.3295 44.0493C32.5104 42.9301 25.522 42.8253 14.7043 44.0224C13.9762 44.1031 13.4166 44.7251 13.4166 45.4773C13.4166 45.8825 13.5852 46.2664 13.8699 46.5327C19.7746 52.0096 24.2484 54.4845 28.6217 54.5001C33.0105 54.5156 37.7252 52.0606 44.1143 46.4931C44.3173 46.3124 44.4634 46.0767 44.5349 45.8145C44.6064 45.5523 44.6003 45.2751 44.5171 45.0164C44.434 44.7576 44.2775 44.5287 44.0667 44.3572C43.8558 44.1858 43.5997 44.0793 43.3295 44.0507V44.0493ZM14.3941 41.2061C25.4384 39.9835 32.6323 40.094 43.6228 41.2316C44.442 41.3171 45.2186 41.6396 45.8573 42.1597C46.4961 42.6797 46.9694 43.3747 47.2193 44.1596C47.4691 44.9445 47.4847 45.7853 47.2641 46.5789C47.0435 47.3725 46.5963 48.0846 45.9773 48.628C39.496 54.2776 34.0985 57.3546 28.6132 57.3334C23.1123 57.3136 17.9528 54.1841 11.9447 48.6096C11.5145 48.2089 11.1716 47.7238 10.9373 47.1846C10.7031 46.6454 10.5826 46.0638 10.5833 45.4759C10.5812 44.4197 10.9689 43.3998 11.6721 42.6117C12.3752 41.8235 13.3445 41.3225 14.3941 41.2046V41.2061Z" fill="#8BAAB0"/>
<path d="M40.3333 23.3333C40.3333 26.3391 39.1392 29.2218 37.0138 31.3472C34.8884 33.4726 32.0057 34.6667 29 34.6667C25.9942 34.6667 23.1115 33.4726 20.9861 31.3472C18.8607 29.2218 17.6666 26.3391 17.6666 23.3333C17.6666 20.3275 18.8607 17.4449 20.9861 15.3195C23.1115 13.194 25.9942 12 29 12C32.0057 12 34.8884 13.194 37.0138 15.3195C39.1392 17.4449 40.3333 20.3275 40.3333 23.3333Z" fill="#8BAAB0"/>
<path fill-rule="evenodd" clip-rule="evenodd" d="M29 31.8333C31.2543 31.8333 33.4163 30.9378 35.0104 29.3437C36.6044 27.7497 37.5 25.5877 37.5 23.3333C37.5 21.079 36.6044 18.917 35.0104 17.3229C33.4163 15.7289 31.2543 14.8333 29 14.8333C26.7456 14.8333 24.5836 15.7289 22.9896 17.3229C21.3955 18.917 20.5 21.079 20.5 23.3333C20.5 25.5877 21.3955 27.7497 22.9896 29.3437C24.5836 30.9378 26.7456 31.8333 29 31.8333ZM29 34.6667C32.0057 34.6667 34.8884 33.4726 37.0138 31.3472C39.1392 29.2218 40.3333 26.3391 40.3333 23.3333C40.3333 20.3275 39.1392 17.4449 37.0138 15.3195C34.8884 13.194 32.0057 12 29 12C25.9942 12 23.1115 13.194 20.9861 15.3195C18.8607 17.4449 17.6666 20.3275 17.6666 23.3333C17.6666 26.3391 18.8607 29.2218 20.9861 31.3472C23.1115 33.4726 25.9942 34.6667 29 34.6667Z" fill="#8BAAB0"/>
</svg>
