<svg width="53" height="51" viewBox="0 0 53 51" fill="none" xmlns="http://www.w3.org/2000/svg">
<path fill-rule="evenodd" clip-rule="evenodd" d="M14.3219 39.1604C23.3916 37.8854 29.6363 37.995 38.7179 39.205C39.3755 39.2967 39.9765 39.6144 40.4098 40.0992C40.843 40.5841 41.0793 41.2035 41.075 41.843C41.075 42.455 40.8564 43.0491 40.4615 43.5132C39.7733 44.3224 39.0683 45.1181 38.3469 45.9H41.8462C42.0661 45.6476 42.2874 45.39 42.5113 45.1286C43.2973 44.2012 43.726 43.0409 43.725 41.8442C43.725 39.2624 41.7667 37.0375 39.0809 36.6805C29.7847 35.4425 23.2869 35.3239 13.939 36.6384C11.2254 37.0196 9.27502 39.2789 9.27502 41.8787C9.27502 43.0325 9.6659 44.1737 10.4066 45.098C10.6252 45.3709 10.8412 45.6386 11.0558 45.9013H14.4703C13.7991 45.128 13.1444 44.3416 12.5067 43.5425C12.1277 43.0642 11.9232 42.4789 11.925 41.8774C11.925 40.5042 12.9506 39.3529 14.3219 39.1604Z" fill="#85A5AB"/>
<path fill-rule="evenodd" clip-rule="evenodd" d="M26.5 26.775C27.544 26.775 28.5778 26.5771 29.5424 26.1927C30.5069 25.8082 31.3833 25.2447 32.1215 24.5344C32.8597 23.824 33.4453 22.9807 33.8449 22.0525C34.2444 21.1244 34.45 20.1296 34.45 19.125C34.45 18.1204 34.2444 17.1256 33.8449 16.1975C33.4453 15.2693 32.8597 14.426 32.1215 13.7156C31.3833 13.0053 30.5069 12.4418 29.5424 12.0573C28.5778 11.6729 27.544 11.475 26.5 11.475C24.3916 11.475 22.3694 12.281 20.8785 13.7156C19.3876 15.1503 18.55 17.0961 18.55 19.125C18.55 21.1539 19.3876 23.0997 20.8785 24.5344C22.3694 25.969 24.3916 26.775 26.5 26.775ZM26.5 29.325C29.3113 29.325 32.0075 28.2503 33.9954 26.3375C35.9832 24.4246 37.1 21.8302 37.1 19.125C37.1 16.4198 35.9832 13.8254 33.9954 11.9125C32.0075 9.99963 29.3113 8.92499 26.5 8.92499C23.6887 8.92499 20.9926 9.99963 19.0047 11.9125C17.0168 13.8254 15.9 16.4198 15.9 19.125C15.9 21.8302 17.0168 24.4246 19.0047 26.3375C20.9926 28.2503 23.6887 29.325 26.5 29.325Z" fill="#85A5AB"/>
<path fill-rule="evenodd" clip-rule="evenodd" d="M26.5 48.45C39.6718 48.45 50.35 38.1748 50.35 25.5C50.35 12.8252 39.6718 2.55 26.5 2.55C13.3282 2.55 2.65 12.8252 2.65 25.5C2.65 38.1748 13.3282 48.45 26.5 48.45ZM26.5 51C41.136 51 53 39.5836 53 25.5C53 11.4164 41.136 0 26.5 0C11.8641 0 0 11.4164 0 25.5C0 39.5836 11.8641 51 26.5 51Z" fill="#85A5AB"/>
</svg>
