<svg width="274" height="41" viewBox="0 0 274 41" fill="none" xmlns="http://www.w3.org/2000/svg">
<rect width="274" height="41" rx="14" fill="#B7D2CC"/>
<path d="M110.47 25.335V27C110.176 27 109.918 26.9928 109.696 26.9785C109.474 26.957 109.259 26.8962 109.052 26.7959L109.31 26.5273C109.353 27.4583 109.209 28.2604 108.88 28.9336C108.55 29.6068 108.046 30.1833 107.365 30.6631C106.964 30.9567 106.495 31.2288 105.958 31.4795C105.421 31.7301 104.859 31.9378 104.271 32.1025L103.734 30.5234C104.465 30.2799 105.145 30.015 105.775 29.7285C106.406 29.4421 106.932 29.1126 107.354 28.7402C107.691 28.4609 107.935 28.1673 108.085 27.8594C108.235 27.5514 108.311 27.2399 108.311 26.9248C108.311 26.6598 108.268 26.3662 108.182 26.0439C108.096 25.7145 107.988 25.36 107.859 24.9805C107.73 24.6081 107.566 24.1533 107.365 23.6162C107.172 23.0791 106.971 22.5384 106.764 21.9941L108.106 21.5752C108.264 21.9977 108.4 22.3916 108.515 22.7568C108.629 23.1221 108.74 23.5052 108.848 23.9062C108.891 24.071 108.926 24.2106 108.955 24.3252C108.984 24.4326 109.009 24.5257 109.03 24.6045C109.109 24.8623 109.206 25.0413 109.32 25.1416C109.485 25.2705 109.868 25.335 110.47 25.335ZM110.47 27V25.335C110.67 25.335 110.799 25.3994 110.856 25.5283C110.921 25.6572 110.953 25.8721 110.953 26.1729C110.953 26.4378 110.921 26.6419 110.856 26.7852C110.792 26.9284 110.663 27 110.47 27ZM106.581 20.2324L104.927 18.9971L105.915 17.7402L107.559 18.9756L106.581 20.2324ZM118.537 27.1396C118.329 27.1396 118.082 27.1217 117.796 27.0859C117.058 26.9857 116.317 26.7852 115.572 26.4844C114.827 26.1836 114.183 25.7682 113.639 25.2383L114.219 23.6807C114.448 23.9886 114.817 24.2822 115.325 24.5615C115.834 24.8337 116.385 25.0557 116.979 25.2275C117.574 25.3994 118.125 25.4854 118.634 25.4854C118.77 25.4854 118.867 25.4567 118.924 25.3994C118.988 25.335 119.021 25.2383 119.021 25.1094C119.021 24.9948 118.999 24.8516 118.956 24.6797C118.849 24.2428 118.673 23.8167 118.43 23.4014C118.186 22.986 117.875 22.6423 117.495 22.3701C117.123 22.098 116.689 21.9619 116.195 21.9619C115.608 21.9619 115.164 22.1732 114.863 22.5957C114.562 23.0111 114.362 23.4587 114.262 23.9385L113.843 25.1523C113.578 25.8398 113.241 26.3161 112.833 26.5811C112.425 26.846 111.927 26.9821 111.34 26.9893L110.48 27V25.335H110.953C111.483 25.335 111.895 25.2562 112.188 25.0986C112.489 24.9411 112.729 24.694 112.908 24.3574C113.087 24.0208 113.263 23.584 113.435 23.0469C113.7 22.2161 114.058 21.5537 114.509 21.0596C114.96 20.5654 115.536 20.3184 116.238 20.3184C116.811 20.3184 117.33 20.4759 117.796 20.791C118.261 21.099 118.659 21.5036 118.988 22.0049C119.325 22.5062 119.579 23.0469 119.751 23.627C119.93 24.207 120.02 24.7656 120.02 25.3027C120.02 25.6608 119.962 25.9831 119.848 26.2695C119.74 26.556 119.586 26.778 119.386 26.9355C119.293 27.0072 119.171 27.0573 119.021 27.0859C118.877 27.1217 118.716 27.1396 118.537 27.1396ZM110.48 27C110.287 27 110.158 26.9284 110.094 26.7852C110.029 26.6419 109.997 26.4378 109.997 26.1729C109.997 25.8721 110.029 25.6572 110.094 25.5283C110.151 25.3994 110.28 25.335 110.48 25.335V27ZM126.647 25.335V27C126.354 27 126.096 26.9928 125.874 26.9785C125.652 26.957 125.437 26.8962 125.229 26.7959L125.487 26.5273C125.53 27.4583 125.387 28.2604 125.058 28.9336C124.728 29.6068 124.223 30.1833 123.543 30.6631C123.142 30.9567 122.673 31.2288 122.136 31.4795C121.599 31.7301 121.036 31.9378 120.449 32.1025L119.912 30.5234C120.643 30.2799 121.323 30.015 121.953 29.7285C122.583 29.4421 123.11 29.1126 123.532 28.7402C123.869 28.4609 124.112 28.1673 124.263 27.8594C124.413 27.5514 124.488 27.2399 124.488 26.9248C124.488 26.6598 124.445 26.3662 124.359 26.0439C124.273 25.7145 124.166 25.36 124.037 24.9805C123.908 24.6081 123.743 24.1533 123.543 23.6162C123.35 23.0791 123.149 22.5384 122.941 21.9941L124.284 21.5752C124.442 21.9977 124.578 22.3916 124.692 22.7568C124.807 23.1221 124.918 23.5052 125.025 23.9062C125.068 24.071 125.104 24.2106 125.133 24.3252C125.161 24.4326 125.187 24.5257 125.208 24.6045C125.287 24.8623 125.383 25.0413 125.498 25.1416C125.663 25.2705 126.046 25.335 126.647 25.335ZM126.647 27V25.335C126.848 25.335 126.977 25.3994 127.034 25.5283C127.099 25.6572 127.131 25.8721 127.131 26.1729C127.131 26.4378 127.099 26.6419 127.034 26.7852C126.97 26.9284 126.841 27 126.647 27ZM126.658 27V25.335H128.28C128.588 25.335 128.789 25.292 128.882 25.2061C128.975 25.1201 129.004 24.9089 128.968 24.5723C128.918 24.0566 128.864 23.541 128.807 23.0254C128.749 22.5026 128.688 21.9727 128.624 21.4355C128.56 20.8913 128.488 20.3291 128.409 19.749C128.338 19.1689 128.259 18.5566 128.173 17.9121C128.087 17.2676 127.994 16.5801 127.894 15.8496L129.279 15.7529C129.365 16.5407 129.451 17.375 129.537 18.2559C129.623 19.1296 129.702 19.9746 129.773 20.791C129.852 21.6003 129.917 22.3092 129.967 22.918C130.017 23.5195 130.053 23.9456 130.074 24.1963C130.103 24.6403 130.089 25.027 130.031 25.3564C129.981 25.6787 129.841 26.0153 129.612 26.3662C129.448 26.6169 129.251 26.7852 129.021 26.8711C128.799 26.957 128.484 27 128.076 27H126.658ZM126.658 27C126.465 27 126.336 26.9284 126.271 26.7852C126.207 26.6419 126.175 26.4378 126.175 26.1729C126.175 25.8721 126.207 25.6572 126.271 25.5283C126.329 25.3994 126.458 25.335 126.658 25.335V27ZM132.91 27C132.753 25.2598 132.559 23.4336 132.33 21.5215C132.101 19.6022 131.857 17.7116 131.6 15.8496L132.985 15.7422C133.2 17.7402 133.394 19.638 133.565 21.4355C133.737 23.2259 133.895 25.0807 134.038 27H132.91ZM150.27 25.335V27C149.983 27 149.643 26.9821 149.249 26.9463C148.855 26.9033 148.429 26.7637 147.971 26.5273L148.583 26.3125C148.562 27.265 148.361 28.0993 147.981 28.8154C147.602 29.5387 147.076 30.1009 146.402 30.502C145.736 30.9102 144.966 31.1143 144.093 31.1143C143.169 31.1143 142.403 30.9352 141.794 30.5771C141.192 30.2262 140.745 29.7357 140.451 29.1055C140.158 28.4824 140.011 27.7663 140.011 26.957C140.011 25.9043 140.236 24.7764 140.688 23.5732L141.601 23.874C141.271 24.7979 141.106 25.6214 141.106 26.3447C141.106 27.2399 141.364 27.9525 141.88 28.4824C142.396 29.0195 143.19 29.2881 144.265 29.2881C145.017 29.2881 145.668 29.1484 146.22 28.8691C146.778 28.597 147.161 28.2139 147.369 27.7197C147.434 27.555 147.48 27.3581 147.509 27.1289C147.537 26.8997 147.552 26.6419 147.552 26.3555C147.552 26.1263 147.541 25.8757 147.52 25.6035C147.505 25.3314 147.48 25.0378 147.444 24.7227C147.287 23.3763 147.14 22.1624 147.004 21.0811C146.868 19.9925 146.743 19.0186 146.628 18.1592C146.521 17.2926 146.417 16.5228 146.316 15.8496L147.702 15.7422C147.795 16.5801 147.885 17.4395 147.971 18.3203C148.064 19.194 148.146 20.0319 148.218 20.834C148.297 21.6289 148.361 22.3343 148.411 22.9502C148.468 23.5661 148.508 24.0352 148.529 24.3574C148.558 24.8086 148.658 25.0843 148.83 25.1846C149.002 25.2848 149.36 25.335 149.904 25.335H150.27ZM150.27 27V25.335C150.47 25.335 150.599 25.3994 150.656 25.5283C150.721 25.6572 150.753 25.8721 150.753 26.1729C150.753 26.4378 150.721 26.6419 150.656 26.7852C150.592 26.9284 150.463 27 150.27 27ZM155.684 27.0322C155.068 27.0322 154.434 26.9893 153.782 26.9033C153.131 26.8102 152.515 26.667 151.935 26.4736L153.675 26.4092C153.453 26.6598 153.177 26.821 152.848 26.8926C152.518 26.9642 152.117 27 151.645 27H150.27V25.335H151.913C152.407 25.335 152.726 25.2347 152.869 25.0342C153.012 24.8265 153.134 24.4505 153.234 23.9062L153.729 21.3281L154.856 21.5645L154.416 24.1318C154.366 24.4255 154.309 24.6868 154.244 24.916C154.18 25.1452 154.108 25.3529 154.029 25.5391L153.9 25.249C154.115 25.292 154.377 25.3242 154.685 25.3457C154.993 25.3672 155.293 25.3779 155.587 25.3779C156.389 25.3779 156.89 25.292 157.091 25.1201C157.299 24.9411 157.402 24.6618 157.402 24.2822L157.413 21.7793H158.52L158.541 24.1855C158.548 24.5938 158.648 24.8945 158.842 25.0879C159.035 25.2741 159.501 25.3672 160.238 25.3672C160.575 25.3672 160.843 25.3493 161.044 25.3135C161.252 25.2777 161.409 25.2311 161.517 25.1738C161.681 25.0736 161.764 24.9196 161.764 24.7119C161.764 24.5758 161.735 24.4004 161.678 24.1855C161.585 23.8704 161.427 23.4766 161.205 23.0039C160.99 22.5312 160.697 21.987 160.324 21.3711L161.42 20.6406C161.821 21.2422 162.14 21.8903 162.376 22.585C162.619 23.2796 162.741 23.9635 162.741 24.6367C162.741 25.2812 162.619 25.779 162.376 26.1299C162.132 26.4736 161.81 26.7135 161.409 26.8496C161.015 26.9785 160.596 27.043 160.152 27.043C159.952 27.043 159.701 27.0251 159.4 26.9893C159.1 26.9535 158.806 26.8854 158.52 26.7852C158.233 26.6849 158.011 26.5381 157.854 26.3447L158.208 26.291C157.9 26.5775 157.538 26.7744 157.123 26.8818C156.708 26.9821 156.228 27.0322 155.684 27.0322ZM150.27 27C150.076 27 149.947 26.9284 149.883 26.7852C149.818 26.6419 149.786 26.4378 149.786 26.1729C149.786 25.8721 149.818 25.6572 149.883 25.5283C149.94 25.3994 150.069 25.335 150.27 25.335V27ZM163.01 32.1025L162.473 30.5234C163.146 30.2943 163.808 30.0329 164.46 29.7393C165.112 29.4528 165.66 29.1198 166.104 28.7402C166.734 28.196 167.049 27.5837 167.049 26.9033C167.049 26.6455 167.006 26.3555 166.92 26.0332C166.834 25.7109 166.727 25.36 166.598 24.9805C166.454 24.5723 166.268 24.0566 166.039 23.4336C165.81 22.8034 165.577 22.1839 165.341 21.5752L166.705 21.1992C166.898 21.7077 167.06 22.1696 167.188 22.585C167.325 22.9932 167.457 23.4336 167.586 23.9062C167.715 24.3932 167.826 24.8766 167.919 25.3564C168.012 25.8363 168.059 26.3232 168.059 26.8174C168.059 27.6982 167.89 28.443 167.554 29.0518C167.217 29.6676 166.734 30.2048 166.104 30.6631C165.688 30.9639 165.215 31.236 164.686 31.4795C164.156 31.7301 163.597 31.9378 163.01 32.1025ZM170.572 27C170.415 25.2598 170.221 23.4336 169.992 21.5215C169.763 19.6022 169.52 17.7116 169.262 15.8496L170.647 15.7422C170.862 17.7402 171.056 19.638 171.228 21.4355C171.399 23.2259 171.557 25.0807 171.7 27H170.572Z" fill="white"/>
</svg>
