<svg width="28" height="28" viewBox="0 0 28 28" fill="none" xmlns="http://www.w3.org/2000/svg">
<path d="M20.08 2.64499L18.42 2.14499C17.6643 1.91701 16.8516 1.97182 16.1333 2.29918C15.4151 2.62654 14.8406 3.20408 14.517 3.92399L13.484 6.22199C13.2057 6.84105 13.1281 7.53173 13.2623 8.1971C13.3964 8.86247 13.7355 9.46915 14.232 9.93199L16.037 11.615C16.0593 11.6358 16.0776 11.6606 16.091 11.688C16.28 12.074 15.993 13.105 15.094 14.663C14.08 16.419 13.297 17.113 12.934 17.006L10.565 16.281C9.91622 16.0829 9.22171 16.0927 8.57881 16.3092C7.93591 16.5256 7.37685 16.9378 6.98 17.488L5.512 19.521C5.05112 20.1593 4.83763 20.9433 4.9112 21.7271C4.98477 22.511 5.3404 23.2416 5.912 23.783L7.175 24.978C7.6142 25.394 8.14753 25.6976 8.72948 25.8628C9.31142 26.0281 9.92471 26.0501 10.517 25.927C14.034 25.195 17.185 22.363 19.997 17.493C22.81 12.62 23.687 8.46999 22.557 5.05699C22.3678 4.48559 22.0439 3.96813 21.6126 3.54831C21.1813 3.12849 20.6553 2.81866 20.079 2.64499H20.08ZM19.646 4.08099C19.9918 4.18514 20.3074 4.371 20.5663 4.62286C20.8251 4.87471 21.0195 5.18517 21.133 5.52799C22.107 8.46899 21.318 12.205 18.698 16.743C16.08 21.278 13.242 23.828 10.212 24.458C9.85646 24.5319 9.4883 24.5187 9.13898 24.4194C8.78966 24.3202 8.46955 24.1378 8.206 23.888L6.944 22.694C6.6361 22.4025 6.44448 22.0092 6.40475 21.5871C6.36503 21.165 6.47989 20.7428 6.728 20.399L8.196 18.365C8.40966 18.0688 8.71062 17.8469 9.05671 17.7303C9.40281 17.6138 9.7767 17.6084 10.126 17.715L12.501 18.442C13.815 18.833 15.051 17.738 16.393 15.412C17.53 13.444 17.924 12.022 17.438 11.029C17.344 10.837 17.216 10.664 17.06 10.518L15.255 8.83499C14.9876 8.58577 14.8049 8.25906 14.7326 7.90072C14.6603 7.54237 14.7021 7.17039 14.852 6.83699L15.885 4.53999C16.0592 4.15225 16.3687 3.84119 16.7555 3.6649C17.1423 3.4886 17.5801 3.45913 17.987 3.58199L19.647 4.08199L19.646 4.08099Z" fill="white"/>
</svg>
