<svg width="18" height="18" viewBox="0 0 18 18" fill="none" xmlns="http://www.w3.org/2000/svg">
<path d="M13.4784 7.21605C13.4791 7.32189 13.4561 7.42653 13.411 7.5223C13.366 7.61807 13.3001 7.70253 13.2181 7.76947L8.97968 11.2047C8.85329 11.3093 8.69452 11.3667 8.53048 11.3672C8.36645 11.3678 8.20732 11.3113 8.08027 11.2075L3.81995 7.67855C3.67495 7.55875 3.58345 7.38624 3.5656 7.19896C3.54774 7.01168 3.60499 6.82497 3.72475 6.67991C3.8445 6.53486 4.01695 6.44333 4.20416 6.42547C4.39138 6.40761 4.57801 6.46488 4.72302 6.58468L8.52891 9.73956L12.3152 6.6671C12.4189 6.58014 12.5453 6.52471 12.6795 6.50737C12.8137 6.49003 12.95 6.51151 13.0724 6.56926C13.1948 6.62701 13.298 6.71861 13.37 6.83323C13.442 6.94786 13.4796 7.0807 13.4784 7.21605Z" fill="#B8AFAF"/>
</svg>
