<svg width="51" height="63" viewBox="0 0 51 63" fill="none" xmlns="http://www.w3.org/2000/svg">
<path d="M39.5227 36H21.1591V40.5H39.5227V36Z" fill="#5B7A80"/>
<path d="M39.5227 24.75H11.9773V29.25H39.5227V24.75Z" fill="#5B7A80"/>
<path d="M39.5227 47.25H28.0454V51.75H39.5227V47.25Z" fill="#5B7A80"/>
<path d="M5.09091 6.75H11.9773V4.5C11.9773 3.30653 12.461 2.16193 13.3219 1.31802C14.1829 0.474106 15.3506 0 16.5682 0H34.9318C36.1494 0 37.3171 0.474106 38.1781 1.31802C39.039 2.16193 39.5227 3.30653 39.5227 4.5V6.75H46.4091C47.6267 6.75 48.7944 7.22411 49.6554 8.06802C50.5163 8.91193 51 10.0565 51 11.25V58.5C51 59.6935 50.5163 60.8381 49.6554 61.682C48.7944 62.5259 47.6267 63 46.4091 63H5.09091C3.87332 63 2.70561 62.5259 1.84465 61.682C0.983685 60.8381 0.5 59.6935 0.5 58.5V11.25C0.5 10.0565 0.983685 8.91193 1.84465 8.06802C2.70561 7.22411 3.87332 6.75 5.09091 6.75ZM34.9318 4.5H16.5682V13.5H34.9318V4.5ZM5.09091 58.5H46.4091V11.25H39.5227V18H11.9773V11.25H5.09091V58.5Z" fill="#5B7A80"/>
</svg>
