<svg width="152" height="145" viewBox="0 0 152 145" fill="none" xmlns="http://www.w3.org/2000/svg">
<g filter="url(#filter0_d_336_128)">
<path d="M134 66C135.657 66 137.008 67.344 136.924 68.9987C136.575 75.8535 135.033 82.6064 132.357 88.961C129.291 96.2405 124.798 102.855 119.134 108.426C113.469 113.998 106.745 118.417 99.3437 121.433C91.9428 124.448 84.0106 126 76 126C67.9894 126 60.0572 124.448 52.6563 121.433C45.2554 118.417 38.5309 113.998 32.8665 108.426C27.2021 102.855 22.7089 96.2405 19.6433 88.961C16.9673 82.6064 15.425 75.8535 15.0762 68.9987C14.992 67.344 16.3431 66 18 66L31.935 66C33.5919 66 34.9233 67.345 35.0482 68.9972C35.3719 73.2753 36.3869 77.482 38.0609 81.4573C40.1246 86.3578 43.1494 90.8106 46.9627 94.5613C50.7759 98.312 55.3029 101.287 60.2851 103.317C65.2673 105.347 70.6073 106.392 76 106.392C81.3927 106.392 86.7326 105.347 91.7149 103.317C96.6971 101.287 101.224 98.312 105.037 94.5613C108.851 90.8106 111.875 86.3578 113.939 81.4573C115.613 77.482 116.628 73.2753 116.952 68.9972C117.077 67.345 118.408 66 120.065 66H134Z" fill="#345B63" fill-opacity="0.68" shape-rendering="crispEdges"/>
</g>
<path d="M134 60C135.657 60 137.008 58.6559 136.924 57.0012C136.17 42.1801 129.853 28.1169 119.134 17.5736C107.694 6.32141 92.1782 1.2014e-06 76 0C59.8218 -1.2014e-06 44.3062 6.32141 32.8665 17.5736C22.1474 28.1169 15.8296 42.1801 15.0762 57.0012C14.992 58.6559 16.3431 60 18 60L31.9348 60C33.5917 60 34.923 58.6549 35.0479 57.0028C35.775 47.3862 39.9827 38.3039 46.9625 31.4385C54.6637 23.8636 65.1088 19.608 76 19.608C86.8912 19.608 97.3363 23.8636 105.037 31.4385C112.017 38.3039 116.225 47.3862 116.952 57.0028C117.077 58.6549 118.408 60 120.065 60H134Z" fill="#345B63"/>
<g filter="url(#filter1_d_336_128)">
<rect x="71" y="36" width="12" height="49" rx="6" fill="#345B63"/>
<rect x="101" y="54" width="12" height="49" rx="6" transform="rotate(90 101 54)" fill="#345B63"/>
</g>
<defs>
<filter id="filter0_d_336_128" x="0.0725098" y="55" width="151.855" height="90" filterUnits="userSpaceOnUse" color-interpolation-filters="sRGB">
<feFlood flood-opacity="0" result="BackgroundImageFix"/>
<feColorMatrix in="SourceAlpha" type="matrix" values="0 0 0 0 0 0 0 0 0 0 0 0 0 0 0 0 0 0 127 0" result="hardAlpha"/>
<feOffset dy="4"/>
<feGaussianBlur stdDeviation="7.5"/>
<feComposite in2="hardAlpha" operator="out"/>
<feColorMatrix type="matrix" values="0 0 0 0 0 0 0 0 0 0 0 0 0 0 0 0 0 0 0.15 0"/>
<feBlend mode="normal" in2="BackgroundImageFix" result="effect1_dropShadow_336_128"/>
<feBlend mode="normal" in="SourceGraphic" in2="effect1_dropShadow_336_128" result="shape"/>
</filter>
<filter id="filter1_d_336_128" x="32" y="20" width="89" height="89" filterUnits="userSpaceOnUse" color-interpolation-filters="sRGB">
<feFlood flood-opacity="0" result="BackgroundImageFix"/>
<feColorMatrix in="SourceAlpha" type="matrix" values="0 0 0 0 0 0 0 0 0 0 0 0 0 0 0 0 0 0 127 0" result="hardAlpha"/>
<feOffset dy="4"/>
<feGaussianBlur stdDeviation="10"/>
<feComposite in2="hardAlpha" operator="out"/>
<feColorMatrix type="matrix" values="0 0 0 0 0 0 0 0 0 0 0 0 0 0 0 0 0 0 0.15 0"/>
<feBlend mode="normal" in2="BackgroundImageFix" result="effect1_dropShadow_336_128"/>
<feBlend mode="normal" in="SourceGraphic" in2="effect1_dropShadow_336_128" result="shape"/>
</filter>
</defs>
</svg>
