<svg width="35" height="35" viewBox="0 0 35 35" fill="none" xmlns="http://www.w3.org/2000/svg">
<path d="M14.8312 7.29165C15.0491 7.29091 15.2644 7.339 15.4612 7.43237C15.6581 7.52575 15.8315 7.66204 15.9687 7.83124L23.0125 16.5812C23.227 16.8422 23.3442 17.1695 23.3442 17.5073C23.3442 17.8451 23.227 18.1724 23.0125 18.4333L15.7208 27.1833C15.4733 27.4811 15.1176 27.6684 14.732 27.704C14.3463 27.7395 13.9624 27.6204 13.6646 27.3729C13.3668 27.1254 13.1795 26.7697 13.1439 26.384C13.1084 25.9984 13.2275 25.6145 13.475 25.3167L19.9937 17.5L13.6937 9.68332C13.5154 9.46926 13.4021 9.20859 13.3673 8.93217C13.3325 8.65574 13.3776 8.37512 13.4972 8.12352C13.6169 7.87192 13.8061 7.65986 14.0425 7.51244C14.279 7.36501 14.5526 7.2884 14.8312 7.29165Z" fill="#85A5AB"/>
</svg>
