<svg width="50" height="50" viewBox="0 0 50 50" fill="none" xmlns="http://www.w3.org/2000/svg">
<path d="M28.8126 39.5833C28.5013 39.5844 28.1938 39.5157 27.9126 39.3823C27.6314 39.2489 27.3836 39.0542 27.1876 38.8125L17.1251 26.3125C16.8186 25.9397 16.6511 25.4721 16.6511 24.9896C16.6511 24.507 16.8186 24.0394 17.1251 23.6667L27.5417 11.1667C27.8953 10.7412 28.4035 10.4737 28.9544 10.4229C29.5053 10.3721 30.0538 10.5422 30.4792 10.8958C30.9047 11.2495 31.1722 11.7576 31.223 12.3085C31.2738 12.8594 31.1037 13.4079 30.7501 13.8333L21.4376 25L30.4376 36.1667C30.6923 36.4725 30.8541 36.8448 30.9039 37.2397C30.9536 37.6346 30.8892 38.0355 30.7183 38.395C30.5473 38.7544 30.277 39.0573 29.9393 39.2679C29.6015 39.4785 29.2105 39.588 28.8126 39.5833Z" fill="#85A5AB"/>
</svg>
