<svg width="26" height="26" viewBox="0 0 26 26" fill="none" xmlns="http://www.w3.org/2000/svg">
<path d="M22.437 0.158081C22.9049 0.158081 23.3682 0.233248 23.8005 0.379291C24.2328 0.525334 24.6256 0.739392 24.9564 1.00924C25.2873 1.2791 25.5497 1.59946 25.7288 1.95203C25.9078 2.30461 26 2.6825 26 3.06413V23.09C26 23.4717 25.9078 23.8496 25.7288 24.2021C25.5497 24.5547 25.2873 24.8751 24.9564 25.1449C24.6256 25.4148 24.2328 25.6288 23.8005 25.7749C23.3682 25.9209 22.9049 25.9961 22.437 25.9961H4.22598C3.75808 25.9961 3.29476 25.9209 2.86248 25.7749C2.43019 25.6288 2.03741 25.4148 1.70655 25.1449C1.37569 24.8751 1.11324 24.5547 0.934182 24.2021C0.755124 23.8496 0.662964 23.4717 0.662964 23.09V3.06413C0.662853 2.32777 1.00548 1.61883 1.62161 1.08059C2.23773 0.542344 3.0814 0.214939 3.98212 0.164539L4.22598 0.158081H22.437ZM23.6247 18.2402H3.03831V23.09C3.03831 23.6248 3.57039 24.0587 4.22598 24.0587H22.437C22.752 24.0587 23.0541 23.9567 23.2768 23.775C23.4995 23.5933 23.6247 23.347 23.6247 23.09V18.2402ZM6.60292 20.1775H20.0616C20.3625 20.1776 20.6522 20.2708 20.8721 20.4384C21.092 20.606 21.2257 20.8353 21.2462 21.0802C21.2667 21.3251 21.1725 21.5671 20.9826 21.7575C20.7927 21.9479 20.5213 22.0724 20.2232 22.1059L20.0616 22.1149H6.60292C6.30214 22.1145 6.01275 22.021 5.79317 21.8534C5.57359 21.6857 5.44019 21.4564 5.41989 21.2116C5.39959 20.9668 5.4939 20.7249 5.68379 20.5347C5.87368 20.3444 6.145 20.22 6.44298 20.1866L6.60292 20.1775H20.0616H6.60292V20.1775ZM22.437 2.09545H4.22598L4.06446 2.10449C3.78013 2.13632 3.51954 2.25106 3.3309 2.42747C3.14226 2.60389 3.03832 2.83005 3.03831 3.06413V16.3028H6.99722V13.3903C6.99722 12.5546 7.77634 11.8675 8.77398 11.7849L8.97668 11.7758H17.6863C18.7109 11.7758 19.5549 12.4113 19.6547 13.2263L19.6657 13.3903V16.3028H23.6247V3.06413C23.6247 2.80722 23.4995 2.56083 23.2768 2.37917C23.0541 2.19751 22.752 2.09545 22.437 2.09545ZM17.2904 13.7132H9.37257V16.3028H17.2904V13.7132V13.7132ZM13.3315 4.02636C14.3815 4.02636 15.3884 4.36655 16.1309 4.97209C16.8733 5.57764 17.2904 6.39893 17.2904 7.2553C17.2904 8.11167 16.8733 8.93297 16.1309 9.53851C15.3884 10.1441 14.3815 10.4842 13.3315 10.4842C12.2815 10.4842 11.2745 10.1441 10.5321 9.53851C9.78967 8.93297 9.37257 8.11167 9.37257 7.2553C9.37257 6.39893 9.78967 5.57764 10.5321 4.97209C11.2745 4.36655 12.2815 4.02636 13.3315 4.02636ZM13.3315 5.96372C12.9115 5.96372 12.5087 6.0998 12.2117 6.34202C11.9148 6.58424 11.7479 6.91275 11.7479 7.2553C11.7479 7.59785 11.9148 7.92637 12.2117 8.16858C12.5087 8.4108 12.9115 8.54688 13.3315 8.54688C13.7515 8.54688 14.1543 8.4108 14.4512 8.16858C14.7482 7.92637 14.915 7.59785 14.915 7.2553C14.915 6.91275 14.7482 6.58424 14.4512 6.34202C14.1543 6.0998 13.7515 5.96372 13.3315 5.96372Z" fill="#5B7A80"/>
</svg>
