<svg width="33" height="31" viewBox="0 0 33 31" fill="none" xmlns="http://www.w3.org/2000/svg">
<path d="M28.6172 23.9766H6.44531V5.08594C6.44531 4.95273 6.3293 4.84375 6.1875 4.84375H4.38281C4.24102 4.84375 4.125 4.95273 4.125 5.08594V25.9141C4.125 26.0473 4.24102 26.1562 4.38281 26.1562H28.6172C28.759 26.1562 28.875 26.0473 28.875 25.9141V24.2188C28.875 24.0855 28.759 23.9766 28.6172 23.9766ZM9.85488 19.3054C9.95478 19.3992 10.1159 19.3992 10.219 19.3054L14.676 15.1397L18.7881 19.0269C18.888 19.1207 19.0523 19.1207 19.1522 19.0269L28.0274 10.6926C28.1273 10.5987 28.1273 10.4443 28.0274 10.3505L26.7513 9.15166C26.7028 9.10659 26.6374 9.0813 26.5692 9.0813C26.501 9.0813 26.4356 9.10659 26.3871 9.15166L18.975 16.1115L14.8693 12.2305C14.8209 12.1854 14.7554 12.1601 14.6873 12.1601C14.6191 12.1601 14.5536 12.1854 14.5052 12.2305L8.58193 17.7614C8.53395 17.8069 8.50704 17.8684 8.50704 17.9325C8.50704 17.9965 8.53395 18.058 8.58193 18.1035L9.85488 19.3054Z" fill="#C2DACB"/>
</svg>
