<svg width="24" height="24" viewBox="0 0 24 24" fill="none" xmlns="http://www.w3.org/2000/svg">
<path fill-rule="evenodd" clip-rule="evenodd" d="M20 6.66669C20 6.13625 20.2107 5.62755 20.5858 5.25247C20.9609 4.8774 21.4696 4.66669 22 4.66669C22.5304 4.66669 23.0391 4.8774 23.4142 5.25247C23.7893 5.62755 24 6.13625 24 6.66669V20.202L22 23.202L20 20.202V6.66669ZM22 6.00002C21.8232 6.00002 21.6536 6.07026 21.5286 6.19528C21.4036 6.32031 21.3333 6.48988 21.3333 6.66669V19.798L22 20.798L22.6667 19.798V6.66669C22.6667 6.48988 22.5964 6.32031 22.4714 6.19528C22.3464 6.07026 22.1768 6.00002 22 6.00002Z" fill="white"/>
<path fill-rule="evenodd" clip-rule="evenodd" d="M23.3333 9.33333H20.6666V8H23.3333V9.33333Z" fill="white"/>
<path fill-rule="evenodd" clip-rule="evenodd" d="M2.66667 1.33333C2.31304 1.33333 1.97391 1.47381 1.72386 1.72386C1.47381 1.97391 1.33333 2.31304 1.33333 2.66667V21.3333C1.33333 21.687 1.47381 22.0261 1.72386 22.2761C1.97391 22.5262 2.31304 22.6667 2.66667 22.6667H16C16.3536 22.6667 16.6928 22.5262 16.9428 22.2761C17.1929 22.0261 17.3333 21.687 17.3333 21.3333V2.66667C17.3333 2.31304 17.1929 1.97391 16.9428 1.72386C16.6928 1.47381 16.3536 1.33333 16 1.33333H2.66667ZM0 2.66667C0 1.95942 0.280951 1.28115 0.781048 0.781048C1.28115 0.280951 1.95942 0 2.66667 0H16C16.7072 0 17.3855 0.280951 17.8856 0.781048C18.3857 1.28115 18.6667 1.95942 18.6667 2.66667V21.3333C18.6667 22.0406 18.3857 22.7189 17.8856 23.219C17.3855 23.719 16.7072 24 16 24H2.66667C1.95942 24 1.28115 23.719 0.781048 23.219C0.280951 22.7189 0 22.0406 0 21.3333V2.66667Z" fill="white"/>
<path fill-rule="evenodd" clip-rule="evenodd" d="M9.33337 5.99998C9.33337 5.82317 9.40361 5.6536 9.52864 5.52858C9.65366 5.40355 9.82323 5.33331 10 5.33331H15.3334C15.5102 5.33331 15.6798 5.40355 15.8048 5.52858C15.9298 5.6536 16 5.82317 16 5.99998C16 6.17679 15.9298 6.34636 15.8048 6.47138C15.6798 6.59641 15.5102 6.66665 15.3334 6.66665H10C9.82323 6.66665 9.65366 6.59641 9.52864 6.47138C9.40361 6.34636 9.33337 6.17679 9.33337 5.99998Z" fill="white"/>
<path fill-rule="evenodd" clip-rule="evenodd" d="M9.33337 8.66667C9.33337 8.48986 9.40361 8.32029 9.52864 8.19526C9.65366 8.07024 9.82323 8 10 8H15.3334C15.5102 8 15.6798 8.07024 15.8048 8.19526C15.9298 8.32029 16 8.48986 16 8.66667C16 8.84348 15.9298 9.01305 15.8048 9.13807C15.6798 9.2631 15.5102 9.33333 15.3334 9.33333H10C9.82323 9.33333 9.65366 9.2631 9.52864 9.13807C9.40361 9.01305 9.33337 8.84348 9.33337 8.66667Z" fill="white"/>
<path fill-rule="evenodd" clip-rule="evenodd" d="M9.33337 14.6667C9.33337 14.4899 9.40361 14.3203 9.52864 14.1953C9.65366 14.0702 9.82323 14 10 14H15.3334C15.5102 14 15.6798 14.0702 15.8048 14.1953C15.9298 14.3203 16 14.4899 16 14.6667C16 14.8435 15.9298 15.013 15.8048 15.1381C15.6798 15.2631 15.5102 15.3333 15.3334 15.3333H10C9.82323 15.3333 9.65366 15.2631 9.52864 15.1381C9.40361 15.013 9.33337 14.8435 9.33337 14.6667Z" fill="white"/>
<path fill-rule="evenodd" clip-rule="evenodd" d="M9.33337 17.3334C9.33337 17.1565 9.40361 16.987 9.52864 16.8619C9.65366 16.7369 9.82323 16.6667 10 16.6667H15.3334C15.5102 16.6667 15.6798 16.7369 15.8048 16.8619C15.9298 16.987 16 17.1565 16 17.3334C16 17.5102 15.9298 17.6797 15.8048 17.8048C15.6798 17.9298 15.5102 18 15.3334 18H10C9.82323 18 9.65366 17.9298 9.52864 17.8048C9.40361 17.6797 9.33337 17.5102 9.33337 17.3334Z" fill="white"/>
<path fill-rule="evenodd" clip-rule="evenodd" d="M3.99996 14.6666V16.6666H5.99996V14.6666H3.99996ZM3.33329 13.3333H6.66663C6.84344 13.3333 7.01301 13.4036 7.13803 13.5286C7.26305 13.6536 7.33329 13.8232 7.33329 14V17.3333C7.33329 17.5101 7.26305 17.6797 7.13803 17.8047C7.01301 17.9297 6.84344 18 6.66663 18H3.33329C3.15648 18 2.98691 17.9297 2.86189 17.8047C2.73686 17.6797 2.66663 17.5101 2.66663 17.3333V14C2.66663 13.8232 2.73686 13.6536 2.86189 13.5286C2.98691 13.4036 3.15648 13.3333 3.33329 13.3333Z" fill="white"/>
<path fill-rule="evenodd" clip-rule="evenodd" d="M7.80464 5.52869C7.92962 5.65371 7.99983 5.82324 7.99983 6.00002C7.99983 6.1768 7.92962 6.34634 7.80464 6.47135L4.66664 9.60935L2.86197 7.80469C2.7983 7.74319 2.74751 7.66963 2.71257 7.58829C2.67763 7.50695 2.65924 7.41947 2.65847 7.33095C2.6577 7.24243 2.67457 7.15465 2.70809 7.07272C2.74161 6.99079 2.79111 6.91635 2.85371 6.85376C2.91631 6.79116 2.99074 6.74166 3.07267 6.70814C3.1546 6.67462 3.24239 6.65775 3.33091 6.65852C3.41943 6.65929 3.50691 6.67768 3.58824 6.71262C3.66958 6.74756 3.74314 6.79835 3.80464 6.86202L4.66664 7.72402L6.86197 5.52869C6.98699 5.40371 7.15653 5.3335 7.33331 5.3335C7.51008 5.3335 7.67962 5.40371 7.80464 5.52869Z" fill="white"/>
</svg>
