<svg width="308" height="35" viewBox="0 0 308 35" fill="none" xmlns="http://www.w3.org/2000/svg">
<rect width="308" height="35" rx="14" fill="#8CABB1"/>
<path d="M140.22 20.1182C139.224 20.1182 138.211 20.1003 137.18 20.0645C136.156 20.0358 135.214 19.9928 134.354 19.9355C133.502 19.8711 132.833 19.7959 132.346 19.71L132.528 18.249C132.894 18.2777 133.309 18.3063 133.774 18.335C134.24 18.3636 134.673 18.3887 135.074 18.4102C135.368 18.1595 135.529 17.8516 135.558 17.4863C135.586 17.1211 135.568 16.6878 135.504 16.1865L134.505 8.84961L135.891 8.74219L136.589 15.0371C136.618 15.3236 136.639 15.6279 136.653 15.9502C136.675 16.2725 136.675 16.5625 136.653 16.8203C137.176 16.2474 137.745 15.7067 138.361 15.1982C138.984 14.6826 139.622 14.2637 140.273 13.9414C140.925 13.612 141.559 13.4473 142.175 13.4473C143.278 13.4473 144.166 13.8161 144.839 14.5537C145.519 15.2913 145.859 16.2832 145.859 17.5293C145.859 17.8158 145.831 18.0843 145.773 18.335H146.719C146.919 18.335 147.048 18.3994 147.105 18.5283C147.17 18.6572 147.202 18.8721 147.202 19.1729C147.202 19.4378 147.17 19.6419 147.105 19.7852C147.041 19.9284 146.912 20 146.719 20C146.468 20 146.046 19.9964 145.451 19.9893C144.857 19.9749 144.159 19.9499 143.356 19.9141C142.898 19.9714 142.397 20.0179 141.853 20.0537C141.308 20.0967 140.764 20.1182 140.22 20.1182ZM141.756 15.209C141.097 15.209 140.46 15.3701 139.844 15.6924C139.228 16.0146 138.648 16.4229 138.104 16.917C137.566 17.4111 137.079 17.9232 136.643 18.4531C137.13 18.4746 137.634 18.4854 138.157 18.4854C138.68 18.4854 139.317 18.4854 140.069 18.4854C141.874 18.4854 143.281 18.3564 144.291 18.0986C144.542 18.0342 144.699 17.9518 144.764 17.8516C144.835 17.7513 144.871 17.6439 144.871 17.5293C144.871 17.1211 144.724 16.7415 144.431 16.3906C144.144 16.0326 143.765 15.7461 143.292 15.5312C142.819 15.3164 142.307 15.209 141.756 15.209ZM140.596 12.0293L138.941 10.7939L139.93 9.53711L141.573 10.7725L140.596 12.0293ZM151.51 17.6367C151.789 17.6367 152.09 17.5866 152.412 17.4863C152.734 17.3789 153.01 17.2178 153.239 17.0029C153.468 16.7881 153.583 16.516 153.583 16.1865C153.583 15.8857 153.479 15.5671 153.271 15.2305C153.071 14.8867 152.824 14.5967 152.53 14.3604C152.237 14.1169 151.957 13.9951 151.692 13.9951C151.377 13.9951 151.048 14.1276 150.704 14.3926C150.368 14.6576 150.081 14.9655 149.845 15.3164C149.616 15.6602 149.501 15.9609 149.501 16.2188C149.501 16.5553 149.705 16.8776 150.113 17.1855C150.521 17.4863 150.987 17.6367 151.51 17.6367ZM146.719 20C146.525 20 146.396 19.9284 146.332 19.7852C146.268 19.6419 146.235 19.4378 146.235 19.1729C146.235 18.8721 146.268 18.6572 146.332 18.5283C146.389 18.3994 146.518 18.335 146.719 18.335H147.299C147.75 18.335 148.137 18.3314 148.459 18.3242C148.781 18.3099 149.071 18.292 149.329 18.2705C149.107 18.0628 148.917 17.8014 148.76 17.4863C148.602 17.1712 148.523 16.8167 148.523 16.4229C148.523 15.9932 148.617 15.5348 148.803 15.0479C148.996 14.5537 149.247 14.0918 149.555 13.6621C149.87 13.2324 150.21 12.8815 150.575 12.6094C150.94 12.3301 151.299 12.1904 151.649 12.1904C152 12.1904 152.348 12.3265 152.691 12.5986C153.035 12.8708 153.347 13.2217 153.626 13.6514C153.905 14.0811 154.127 14.5394 154.292 15.0264C154.464 15.5133 154.55 15.9717 154.55 16.4014C154.55 16.7881 154.482 17.1318 154.346 17.4326C154.217 17.7334 154.063 17.9876 153.884 18.1953C154.256 18.2526 154.6 18.292 154.915 18.3135C155.237 18.3278 155.545 18.335 155.839 18.335C156.039 18.335 156.168 18.3994 156.226 18.5283C156.29 18.6572 156.322 18.8721 156.322 19.1729C156.322 19.4378 156.29 19.6419 156.226 19.7852C156.161 19.9284 156.032 20 155.839 20H155.42C154.89 20 154.288 19.9606 153.615 19.8818C152.949 19.8031 152.255 19.6849 151.531 19.5273C150.915 19.6992 150.317 19.821 149.737 19.8926C149.157 19.9642 148.538 20 147.879 20H146.719ZM151.617 11.0088L149.963 9.77344L150.951 8.5166L152.595 9.75195L151.617 11.0088ZM155.85 20C155.656 20 155.527 19.9284 155.463 19.7852C155.398 19.6419 155.366 19.4378 155.366 19.1729C155.366 18.8721 155.398 18.6572 155.463 18.5283C155.52 18.3994 155.649 18.335 155.85 18.335H156.634C158.023 18.335 159.43 18.1523 160.855 17.7871C162.288 17.4219 163.695 16.9456 165.077 16.3584C164.941 16.3154 164.798 16.2689 164.647 16.2188C164.504 16.1615 164.354 16.1042 164.196 16.0469C163.566 15.8177 162.904 15.5957 162.209 15.3809C161.521 15.166 160.913 15.0586 160.383 15.0586C159.867 15.0586 159.42 15.1696 159.04 15.3916C158.66 15.6136 158.306 15.9824 157.977 16.498L157.257 15.9932C157.55 15.2126 157.998 14.6003 158.6 14.1562C159.208 13.7122 159.896 13.4902 160.662 13.4902C161.142 13.4902 161.683 13.569 162.284 13.7266C162.893 13.8841 163.706 14.1634 164.723 14.5645C165.324 14.7936 165.822 14.9798 166.216 15.123C166.617 15.2591 167 15.3594 167.365 15.4238C167.73 15.4811 168.157 15.5098 168.644 15.5098L168.429 16.9385C167.698 16.9385 166.975 17.0602 166.259 17.3037C165.55 17.5472 164.805 17.8337 164.024 18.1631C163.344 18.4424 162.617 18.7253 161.844 19.0117C161.07 19.291 160.229 19.5273 159.319 19.7207C158.417 19.9069 157.414 20 156.312 20H155.85Z" fill="white"/>
</svg>
